/* XPM */
static char *_3b26e937b45409b9d80b313f3f42cf9[] = {
/* columns rows colors chars-per-pixel */
"133 49 250 2 ",
"   c black",
".  c #010101",
"X  c #040000",
"o  c #050102",
"O  c #080000",
"+  c #0A0001",
"@  c #080507",
"#  c #0A0407",
"$  c #0B0508",
"%  c #0B0509",
"&  c #0C0509",
"*  c #0E0409",
"=  c #0C0609",
"-  c #0C050B",
";  c #0E050A",
":  c #0F060C",
">  c #0B0A0B",
",  c #0D090A",
"<  c #0E080B",
"1  c #0F0B0C",
"2  c #0F0E0F",
"3  c #140407",
"4  c #10070E",
"5  c #10080C",
"6  c #12080F",
"7  c #130B0E",
"8  c #120D0F",
"9  c #120E0F",
"0  c #140D0F",
"q  c #180E0F",
"w  c #140810",
"e  c #130F10",
"r  c #170A14",
"t  c #1C0D10",
"y  c #190A14",
"u  c #1B0B16",
"i  c #1B0C16",
"p  c #1E0D1A",
"a  c #131112",
"s  c #151012",
"d  c #161012",
"f  c #171314",
"g  c #171616",
"h  c #181016",
"j  c #191516",
"k  c #1C1819",
"l  c #1D191A",
"z  c #1F1A1B",
"x  c #210F1B",
"c  c #240F1E",
"v  c #250F1E",
"b  c #23101D",
"n  c #23101E",
"m  c #25131E",
"M  c #21161C",
"N  c #2E1528",
"B  c #2F1B29",
"V  c #34162A",
"C  c #35162A",
"Z  c #36162A",
"A  c #37162A",
"S  c #33172D",
"D  c #34172E",
"F  c #3E1529",
"G  c #361E2D",
"H  c #3D1A34",
"J  c #3D1C36",
"K  c #3F1F3E",
"L  c #292225",
"P  c #2A2026",
"I  c #2B2627",
"U  c #2F202B",
"Y  c #2C2829",
"T  c #2A2B2E",
"R  c #312E2F",
"E  c #392D35",
"W  c #3F2B39",
"Q  c #353535",
"!  c #3A3639",
"~  c #411B35",
"^  c #451B35",
"/  c #461B34",
"(  c #471B34",
")  c #461B35",
"_  c #431C37",
"`  c #461C36",
"'  c #481B34",
"]  c #411D38",
"[  c #421D38",
"{  c #421E39",
"}  c #451D39",
"|  c #411E3D",
" . c #411F3D",
".. c #421E3D",
"X. c #431E3D",
"o. c #421F3D",
"O. c #431F3D",
"+. c #401F3E",
"@. c #411F3E",
"#. c #441D3D",
"$. c #451D3D",
"%. c #461D3C",
"&. c #471D3C",
"*. c #461D3D",
"=. c #451E3C",
"-. c #441E3D",
";. c #451E3D",
":. c #441F3D",
">. c #451F3D",
",. c #461E3C",
"<. c #471E3C",
"1. c #461F3C",
"2. c #471F3C",
"3. c #461E3D",
"4. c #461F3D",
"5. c #4E1F3B",
"6. c #4F1F3B",
"7. c #481D3C",
"8. c #491D3C",
"9. c #4A1D3C",
"0. c #481E3C",
"q. c #491E3C",
"w. c #481F3C",
"e. c #491F3C",
"r. c #4A1E3C",
"t. c #4B1E3C",
"y. c #4A1F3C",
"u. c #4B1F3C",
"i. c #4C1E3C",
"p. c #4D1E3C",
"a. c #4C1F3C",
"s. c #4D1F3C",
"d. c #4E1E3C",
"f. c #4E1F3C",
"g. c #4F1F3C",
"h. c #501F3B",
"j. c #511F3B",
"k. c #521F3B",
"l. c #531F3B",
"z. c #541E3B",
"x. c #551E3B",
"c. c #541F3B",
"v. c #551F3B",
"b. c #561E3B",
"n. c #501F3C",
"m. c #511F3C",
"M. c #521F3C",
"N. c #45243B",
"B. c #41203D",
"V. c #42203D",
"C. c #43203D",
"Z. c #40203E",
"A. c #41203E",
"S. c #44203D",
"D. c #45203D",
"F. c #46203C",
"G. c #47203C",
"H. c #46203D",
"J. c #48203C",
"K. c #49203C",
"L. c #4A203C",
"P. c #4B203C",
"I. c #4C203C",
"U. c #4D203C",
"Y. c #4E203C",
"T. c #403C3D",
"R. c #483A42",
"E. c #434041",
"W. c #444142",
"Q. c #454142",
"!. c #4F494B",
"~. c #54464D",
"^. c #514D4E",
"/. c #555252",
"(. c #595A5A",
"). c #656161",
"_. c #6C6A6B",
"`. c #6D6C6C",
"'. c #6B7172",
"]. c #797376",
"[. c gray49",
"{. c #7F7C7D",
"}. c #7F7D7D",
"|. c #807D7D",
" X c #827E80",
".X c #888687",
"XX c #888787",
"oX c #8A8889",
"OX c #8B8989",
"+X c #8B8A8B",
"@X c #8D8A8A",
"#X c #8D8A8B",
"$X c #8D8B8B",
"%X c #908D8E",
"&X c #929090",
"*X c #929091",
"=X c gray59",
"-X c #9C9A9A",
";X c #9E9C9D",
":X c gray63",
">X c #A2A0A0",
",X c #A4A2A2",
"<X c #A6A3A3",
"1X c #A4A3A4",
"2X c #A6A4A4",
"3X c #ABADAE",
"4X c #B7B6B6",
"5X c #B7BCBC",
"6X c #BBB9BA",
"7X c #BEBCBD",
"8X c #BEBDBE",
"9X c #C0BFBF",
"0X c #C1C0C0",
"qX c #C1C0C1",
"wX c #C3C2C2",
"eX c #C5C4C4",
"rX c #C5C4C5",
"tX c #C6C5C5",
"yX c #C7C5C6",
"uX c #C8C7C8",
"iX c #C7C9C9",
"pX c #C8CBCB",
"aX c #CCC8C9",
"sX c #CCCBCB",
"dX c #CACDCD",
"fX c #CBCDCD",
"gX c #CBCDCE",
"hX c #CECDCD",
"jX c gray81",
"kX c #D3D2D3",
"lX c LightGray",
"zX c #D6D5D5",
"xX c #D7D6D7",
"cX c #D2D8D9",
"vX c gray85",
"bX c #DBDADA",
"nX c #E1E1E1",
"mX c #E2E2E3",
"MX c #E5E7E7",
"NX c #E9E8E8",
"BX c gray94",
"VX c #F1F1F1",
"CX c #F3F2F2",
"ZX c #F3F3F3",
"AX c #F4F4F4",
"SX c gray97",
"DX c #F8F8F8",
"FX c #FEFDFD",
"GX c gray100",
"HX c None",
/* pixels */
"HXHXHXHXHXHXHXHXHXHXHXK V.K Z.Z.S.Z.S.Z.V.V.V.V.V.V.S.V.S.V.S.S.S.S.S.S.S.S.H.S.H.S.H.H.S.S.K.S.S.K.G.G.G.G.G.G.G.G.G.G.G.P.G.G.P.G.P.G.G.P.G.P.G.P.G.P.G.P.G.P.K.I.K.K.K.I.K.I.I.I.K.I.I.K.I.I.I.I.I.I.I.I.I.I.P.Y.Y.Y.P.Y.Y.Y.P.Y.P.Y.I.n.I.n.i.n.HXHXHXHXHXHXHXHXHXHXHX",
"HXHXHXHXHXHXHXHXK V.V.K K V.Z.S.Z.Z.Z.S.V.V.V.V.V.S.V.S.V.S.S.S.S.S.S.S.S.H.S.H.S.H.S.H.K.S.S.K.S.K.G.G.G.G.G.G.G.G.P.G.G.G.G.P.G.G.G.P.P.G.P.G.P.G.P.P.P.P.P.P.K.K.K.I.K.I.I.I.K.I.K.I.I.I.I.I.I.I.I.I.I.I.I.I.Y.P.P.Y.P.Y.P.Y.Y.Y.Y.Y.n.I.n.I.n.I.n.i.I.HXHXHXHXHXHXHXHX",
"HXHXHXHXHXHXHX+.+.+.+.V.K Z.Z.Z.Z.V.Z.S.V.V.V.V.S.V.S.V.V.S.S.S.S.S.S.H.H.S.H.S.S.H.H.H.S.S.S.G.K.S.P.G.G.G.G.G.P.G.P.G.G.G.G.G.G.G.P.G.G.P.G.P.G.G.P.G.P.P.G.P.N.K.P.P.I.I.K.K.K.I.I.I.I.I.I.I.I.I.I.I.I.I.I.I.Y.Y.P.Y.Y.P.Y.Y.Y.Y.Y.Y.I.n.I.n.i.n.i.n.n.I.HXHXHXHXHXHXHX",
"HXHXHXHXHXK +.+.+.+.+.+.V.Z.Z.Z.V.V.S.Z.V.V.V.S.V.S.V.S.S.S.S.S.S.S.S.S.S.H.S.H.H.H.H.H.S.G.G.G.S.K.G.G.G.G.G.P.G.G.G.G.P.G.P.G.P.P.G.P.P.G.P.G.P.P.P.P.P.G.P.P.P.P.P.P.K.I.I.I.I.I.K.I.I.I.I.I.I.I.I.I.I.n.I.I.P.Y.Y.Y.Y.Y.Y.Y.Y.Y.Y.Y.n.i.n.i.n.I.n.I.i.n.i.n.HXHXHXHXHX",
"HXHXHXHXK K +.+.+.+.+.+.K O.K O.V.V.+.S.V.V.S.V.V.S.V.S.S.S.S.S.S.S.S.H.S.S.S.S.H.H.S.S.K.S.G.G.G.G.G.G.G.G.G.G.P.G.G.G.G.G.G.P.P.G.P.G.P.G.G.P.P.P.P.P.G.P.G.P.P.P.P.P.P.P.P.P.I.K.I.I.I.I.I.I.P.P.P.P.I.I.I.I.Y.Y.Y.P.Y.Y.Y.Y.Y.Y.I.n.I.n.I.n.I.n.I.n.n.I.n.n.g.HXHXHXHX",
"HXHXHXK K +.+.+.+.+.+.+.O.K O.K +.V.:.+.+.:.=.+.S.V.S.S.S.S.S.S.S.H.H.S.S.S.K.S.H.H.K.S.S.K.G.G.G.G.G.G.G.G.G.P.G.G.G.P.P.G.P.G.G.P.G.P.G.P.P.P.P.G.P.G.P.P.P.P.P.P.P.P.P.P.P.P.I.I.I.I.I.I.I.I.Y.Y.Y.Y.I.n.I.n.Y.Y.Y.Y.Y.Y.Y.Y.Y.Y.n.I.n.I.n.i.n.i.n.i.n.n.n.i.g.g.HXHXHX",
"HXHXHXK +.+.+.+.K +.K O.K O.O.O.+.:.+.:.=.=.S.S.+.=.:.:.:.S.S.S.S.S.H.S.K.S.S.K.H.S.K.K.S.S.K.P.G.G.G.G.P.G.G.G.P.G.P.G.G.P.G.P.P.G.P.G.P.P.P.P.G.P.P.P.P.P.P.P.P.P.P.P.P.P.P.P.I.I.I.I.I.I.I.I.Y.P.P.Y.Y.Y.I.I.Y.Y.Y.Y.Y.Y.Y.Y.Y.I.I.n.I.n.i.n.i.n.I.n.i.n.n.n.g.g.HXHXHX",
"HXHXK K +.+.+.+.K K O.K O.K O.O.:.+.:.+.S.+.+.=.:.S.:.:.:.:.:.S.4.4.S.H.S.S.S.K.H.K.S.S.K.K.K.S.G.G.G.G.G.G.G.P.G.G.G.G.P.G.P.G.G.P.G.P.P.G.P.G.P.P.P.G.P.P.P.P.P.P.P.P.P.Y.P.Y.I.I.I.I.I.I.I.I.Y.Y.Y.Y.Y.Y.Y.n.Y.Y.Y.Y.Y.Y.Y.Y.Y.I.n.I.n.I.n.I.n.n.n.n.n.n.n.I.n.n.n.HXHX",
"HXK K +.+.+.+.+.+.:.+.O.O.O.K B.:.+.:.+.:.+.:.+.:.:.:.:.:.:.:.:.:.:.w.:.w.w.w.:.G.G.G.G.G.G.P.S.G.G.P.G.G.G.G.G.G.G.P.P.G.P.G.P.G.P.P.P.P.P.P.P.G.P.P.P.P.P.P.P.P.P.P.P.P.Y.P.P.P.P.P.Y.P.Y.Y.P.P.P.Y.Y.Y.Y.Y.Y.Y.Y.Y.Y.n.I.n.Y.I.n.I.n.n.i.I.n.I.n.i.n.n.I.n.n.n.n.n.n.HX",
"HXK +.+.+.+.+.+.+.+.O.O.K O.] B.+.+.:.:.:.:.:.:.:.:.:.:.:.:.:.:.:.w.:.:.w.:.:.w.=.G.=.P.=.G.G.K.G.G.G.G.P.G.P.G.P.G.P.G.P.G.P.G.P.G.P.G.P.G.P.G.P.P.P.P.P.P.P.P.P.P.P.P.P.P.Y.P.Y.Y.P.P.Y.P.Y.Y.Y.Y.Y.P.Y.Y.Y.Y.Y.Y.Y.Y.I.n.I.n.n.i.n.i.I.n.n.n.n.n.n.n.n.n.n.n.Y.M.n.n.HX",
"HXK +.+.+.+.+.+.O.K K O.K O.K O.=.S.:.:.:.+.:.:.:.:.:.:.:.:.w.:.:.:.:.w.4.:.w.:.G.=.G.=.P.=.:.w.G.P.P.G.G.G.G.G.G.P.G.P.G.P.G.P.P.G.P.P.G.P.P.P.G.P.P.P.P.P.P.P.P.P.Y.P.Y.Y.P.P.P.P.Y.P.Y.P.P.Y.Y.Y.Y.Y.Y.Y.Y.Y.Y.Y.Y.Y.n.I.n.i.I.n.I.n.n.n.n.i.i.n.I.n.n.n.n.n.M.Y.M.Y.HX",
"K +.+.+.+.+.+.K K O.K O.O.O.O.O.=.+.+.:.:.:.:.:.:.:.:.:.:.w.:.:.:.:.w.S.:.w.:.w.=.G.=.P.=.G.w.w.=.=.P.=.P.7.G.P.P.G.P.G.P.G.P.P.P.P.P.G.P.P.P.P.P.P.P.P.P.P.P.P.Y.P.P.P.P.P.P.Y.P.Y.Y.P.Y.Y.Y.Y.P.P.Y.Y.Y.Y.Y.Y.Y.Y.Y.Y.I.n.I.n.n.i.n.n.i.n.n.n.n.n.n.n.n.n.n.n.Y.Y.M.M.n.",
"+.+.+.+.+.+.+.O.O.K K ] B.B.K O.V.=.S.+.:.:.:.:.:.:.:.:.:.:.:.w.:.:.w.=.G.=.G.=.G.=.G.=.w.w.w.w.P.=.=.P.=.P.P.G.G.7.P.G.P.G.P.G.P.P.P.G.P.P.P.P.P.P.P.P.P.P.P.P.P.P.Y.Y.P.P.P.P.Y.P.Y.Y.n.Y.Y.Y.Y.Y.Y.Y.Y.Y.Y.Y.Y.Y.I.n.I.n.n.I.I.n.i.n.i.n.n.I.n.n.n.n.n.n.n.n.Y.M.M.M.n.",
"+.+.+.+.+.+.K O.K O.O.O.O.O.O.O.:.+.S.=.:.:.:.:.:.:.:.:.w.:.:.:.G.=.=.G.=.G.=.G.=.P.=.P.w.w.w.w.=.P.G.P.G.7.7.P.G.P.P.=.P.7.P.P.G.P.P.P.P.P.P.P.P.P.P.P.P.P.P.P.Y.P.P.P.Y.Y.P.Y.Y.Y.Y.P.I.I.Y.Y.Y.Y.Y.Y.Y.Y.Y.Y.Y.Y.n.I.n.I.i.n.n.n.n.n.n.n.n.n.n.n.n.n.n.n.n.n.M.M.M.Y.n.",
"+.+.+.+.+.+.+.O.O.O.O.O.O.O.O.O.S.=.+.=.:.:.:.:.:.w.:.w.:.:.:.c 0 f L O.G.=.P.=.P.=.G.=.w.w.w.w.P.=.P.7.P.G.7.=.7.=.P.P.P.P.7.7.P.P.7.P.P.P.P.P.P.P.GXP.P.I.I.I.Y.P.P.P.P.P.P.Y.Y.Y.Y.P.n.I.I.n.Y.Y.Y.Y.Y.Y.Y.Y.Y.I.I.n.I.I.n.I.n.n.I.n.n.n.n.n.n.n.n.n.n.n.n.n.M.Y.M.M.n.",
"+.+.+.+.+.:.O.O.O.K O.K O.O.O.O.+.+.:.S.:.:.:.:.:.:.:.:.w.S.y |.rX-X9 ] =.P.=.G.=.G.=.P.w.w.w.w.=.P.=.P.7.P.P.P.P.P.7.P.7.P.P.P.7.7.P.P.I.I.7.GXGXGXGXP.I.I.I.I.P.P.Y.Y.P.Y.Y.Y.P.P.Y.Y.I.I.n.I.Y.Y.Y.Y.Y.Y.Y.Y.I.I.n.I.n.n.n.n.n.i.n.n.n.n.n.n.n.n.n.n.n.n.n.c.M.M.M.M.c.",
"+.+.+.O.O.K O.+.O.O.+.V.+.=.=.+.=.+.=.S.:.:.:.:.:.:.S.J p p `.AXGXGX@ ] =.7.P.=.G.=.G.7.w.w.w.w.w.K.w.w.K.i.w.K.w.K.K.i.K.i.i.K.P.P.7.I.I.7.I.I.GXGXGXI.I.I.I.I.I.I.I.I.I.h.I.I.I.n.I.I.n.I.I.n.n.I.n.I.n.I.n.I.n.I.i.n.n.n.n.n.I.n.i.n.n.n.n.n.n.n.n.c.n.c.n.n.n.c.n.c.n.",
"+.+.O.+.K O.O.=.O.O.O.=.=.+.:.:.S.:.:.:.:.:.:.:.w.S N B ).|.GXGXMX].m =.=.P.=.G.=.P.G.P.w.w.w.w.w.i.w.K.w.w.w.i.w.i.w.K.i.w.K.i.P.7.I.I.i.P.7.A A GXGX7.I.I.I.I.I.I.I.I.I.I.n.I.I.I.I.n.I.n.n.I.I.n.I.n.I.n.I.n.i.n.n.I.n.i.n.I.n.n.n.n.n.n.n.n.n.n.n.n.n.n.c.n.n.n.c.n.c.",
"+.O.+.+.O.K :.+.O.O.V.+.:.+.+.=.:.:.:.:.:.:.:.^ ~ T j @XGXVXbXbX'.5 =./ ' / / / / / / / ` w.w.w.w.w.w.i.w.w.w.w.i.K.w.i.K.w.w.w.P.P.7.7.P.i.I.P.A GXGXI.i.I.i.i.I.i.I.I.I.I.I.I.I.I.I.n.n.I.n.I.n.I.n.I.n.I.n.i.n.n.n.n.I.n.n.n.n.n.n.n.n.n.n.n.n.n.n.n.M.M.M.M.n.c.n.c.n.",
"K O.J O.K O.+.+.O.K =.+.S.=.:.:.:.:.:.:.:.:.S > + aXDXGXzXX X > < 1 t q 2 2 2 2 9 2 2 a h w.w.w.w.w.w.w.K.i.w.K.K.i.K.i.K.i.GXGX7.GXGXGX7.I.I.7.7.GXGXi.I.i.I.GXGXGXGXGXGXGXn.I.GXGXGXI.I.n.GXGXGXGXI.n.i.n.I.n.n.I.n.i.n.n.n.n.n.n.n.n.n.n.c.n.n.c.n.c.M.M.M.M.c.h.c.h.c.",
"[ K #.K +.[ +.#.O.K O.[ +.=.+.:.:.:.:.P ; ; ! pXpXGXGXGXVX7X7XqXrXhXfXfXdXdXdXdXdXdXsXdX3XM w.w.i.w.w.i.w.w.i.i.w.i.K.GXGXGXGXw.P.P.7.GXGX7.I.I.I.GXGXI.I.7.GXGXi.I.i.GXGXGXi.I.GXGXI.n.I.n.i.GXGXGXi.I.i.n.I.i.n.n.n.I.n.n.i.n.n.n.n.n.n.c.n.n.n.n.n.n.M.n.c.n.l.Y.h.c.l.",
"+.#.[ K #.+.$.+.O.O.$.+.%.+.=.:.:.:.:.j {.+XrXGXGXGXGXGXGXGXGXGXGXGXGXGXGXGXGXGXGXGXGXGXGXz K.i.K.w.w.K.w.K.I.w.i.K.i.w.GXGXGXV 7.A A GXGXGXI.i.i.GXGXi.I.GXGXA A A A A GXGXI.i.GXGXA i.n.I.A GXGXGXi.n.n.I.n.n.i.n.n.n.n.I.n.n.n.n.n.n.n.n.c.n.n.c.h.c.n.n.n.c.l.l.h.c.l.",
"K K #.K +.#.+.[ +.%.+.$.+.%.:.%.:.$.:.# mXGXGXGXGXGXGXGXGXGXGXGXGXmX[..X+XoX*X1X:X:X:X,X.Xm w.w.w.w.w.w.w.i.K.i.w.K.K.A V GXGXI.P.P.P.GXGXGXi.I.I.GXGXi.i.GXGXA I.i.i.A GXGXi.n.GXGXi.n.I.n.I.GXGXA n.I.i.n.n.i.n.I.n.i.n.n.n.n.n.n.n.n.n.n.n.n.c.n.c.h.c.h.c.n.l.l.l.l.l.",
"#.#.K #.#.+.$.+.%.+.#.:.#.:.$.+.:.:.$.; rXGXGXGXGXGXGXGXGXGXGXGXGXeXo f k l e X $ $ ; & y w.w.w.i.w.K.i.K.i.w.K.i.i.w.w.A GXGXi.I.7.7.A GXGXI.i.i.GXGXI.i.GXGXi.i.I.I.i.GXGXI.n.GXGXn.I.n.i.i.GXGXA i.n.I.n.n.n.n.n.n.n.n.n.n.n.n.n.n.n.c.n.c.n.h.c.h.c.h.c.n.c.l.l.l.l.l.",
"K [ #.+.#.+.#.+.+.%.+.%.:.$.:.$.:.w.:.< rXGXGXGXGXGXGXGXGXGXGXGXGXGXGXGXGXGX5X3 w.w.w.w.w.w.w.w.K.w.w.i.I.K.w.i.i.K.w.w.i.GXGXw.I.7.I.A GXGX7.i.GXGXGXi.GXGXGXI.I.I.i.n.GXGXi.GXGXGXi.I.n.I.n.GXGXi.i.n.I.n.n.i.i.n.n.I.n.n.n.n.n.n.n.h.h.h.h.h.h.c.c.h.c.h.c.c.l.l.l.l.l.",
"K #.+.[ +.#.+.%.%.+.%.+.%.+.$.:.$.:.:.< rXGXGXGXGXGXGXGXGXGXGXGXGXGXGXGXGXGXcXO w.w.w.i.w.i.w.i.w.w.w.K.w.i.i.K.K.i.i.I.w.GXGXI.i.P.7.P.GXGXI.I.GXGXGXI.GXGXGXi.n.i.i.I.GXGXI.GXGXGXi.n.i.n.i.GXGXI.n.I.n.n.n.n.n.n.n.n.n.n.n.n.n.c.h.c.h.c.h.c.c.h.h.c.h.c.c.c.l.l.l.l.v.",
"K K #.+.[ +.%.+.+.%.:.%.:.$.+.$.:.$.:.< rXGXGXGXGXGXGXGXGXGXGXGXGXjXR T.E.(.~.F w.w.w.w.i.w.w.w.i.K.w.i.w.K.K.w.K.w.i.K.i.GXGXi.I.7.I.I.GXGXI.i.GXGXGXi.A GXGXi.I.n.I.n.GXGXi.A GXGXn.I.n.I.i.GXGXI.n.n.n.i.n.I.I.n.n.n.n.n.n.i.h.h.h.h.c.h.c.h.h.c.h.h.c.c.h.c.l.l.v.l.l.",
"#.#.+.#.+.%.+.%.%.+.$.+.$.:.%.:.$.:.:.; rXGXGXGXGXGXGXGXGXGXGXGXGXlXE.^./.Y i w.w.i.w.i.w.w.w.i.K.i.i.K.i.i.K.i.i.w.I.i.I.GXGXw.I.P.i.GXGXA i.I.GXGXGXI.A GXGXGXi.i.I.i.GXGXn.A GXGXGXn.i.n.I.GXGXi.i.n.n.n.n.n.n.n.n.n.n.k.k.k.c.h.h.c.h.h.h.c.c.h.c.c.c.h.c.c.l.v.l.v.v.",
"#.+.#.+.$.:.#.+.+.%.:.$.:.$.:.$.:.7.:.4 rXGXGXGXGXGXGXGXGXGXGXGXGXGXGXGXGX<Xw 7.w.i.w.7.w.7.w.w.i.K.i.w.K.w.i.K.K.i.I.I.w.GXGXGXi.I.7.GXA A I.i.GXGXGXi.I.GXGXGXGXi.i.GXGXGXn.I.GXGXGXGXi.I.GXGXGXI.i.n.n.n.n.i.n.n.n.n.h.h.h.h.h.c.h.h.h.h.c.h.c.h.h.c.h.c.h.c.v.l.v.l.c.",
"+.#.+.#.+.$.+.$.$.:.$.:.$.:.$.:.$.:.:.; uXGXGXGXGXGXGXGXGXGXGXGXDXBXVXAXAX@Xu 7.w.7.9.w.i.7.i.w.w.i.w.i.i.K.K.i.i.I.w.i.w.GXGXGXGXGXGXV A P.i.I.GXGXGXI.i.A A GXGXGXGXI.GXGXi.n.A GXGXGXGXGXi.GXGXn.n.n.I.n.n.n.n.n.h.h.h.h.c.h.h.h.c.h.c.h.h.c.h.c.c.h.c.c.c.c.l.v.l.v.c.",
"#.+.[ :.%.+.$.:.+.$.:.$.:.$.:.$.:.:.:.* xXGXGXGXGXGXGXGXGXGXGXGX@XX 9 e I G %.7.w.9.w.9.7.w.i.w.i.w.i.w.K.i.i.I.w.i.i.I.i.GXGXA i.P.7.A 7.i.I.i.A A V I.I.A A A A i.I.A A A i.I.A A A V i.I.A GXA i.I.n.i.n.n.I.n.h.h.h.h.h.c.h.c.h.h.h.h.c.h.c.c.c.c.c.c.c.c.c.v.l.v.v.b.",
"+.[ +.%.+.%.+.$.$.:.$.:.$.:.7.:.$.:.=.s E.Q -XGXGXGXGXGXGXGXGXGXlX=X2XaX!.c 9.w.9.w.9.w.w.i.w.i.w.i.w.i.w.K.i.w.I.i.K.i.w.GXGXA A A A I.I.I.i.I.A A A 7.i.I.i.A A A A i.A A I.i.i.A A A A A i.GXA n.n.n.n.n.n.n.h.h.h.h.h.h.h.h.h.h.h.c.c.h.c.h.c.h.c.h.c.h.c.c.v.v.v.b.c.",
"$.+.$.+.%.+.%.+.%.:.$.:.$.:.$.:.:.7.=.N.P m E %X*X[.NXGXGXGXGXGXGXGXGX6XR.S.w.w.w.w.w.9.i.i.w.9.i.w.9.9.i.i.w.i.i.i.i.i.w.GXGXi.i.I.i.I.i.I.i.I.i.n.I.n.i.n.I.n.I.n.I.n.I.n.I.n.i.GXn.i.n.i.GXA n.I.n.I.n.i.n.h.h.h.h.h.h.h.h.c.h.c.h.c.c.h.c.h.c.c.c.c.c.c.c.c.c.c.b.c.b.",
"+.$.:.$.+.%.:.$.:.$.:.$.:.$.:.$.S.7.=.7.=.:.H 5 4 4 `.qX9X9X7X9X9XqX4X; ^ 9.w.i.w.i.9.w.w.9.w.i.9.w.i.w.9.w.i.i.i.w.i.w.GXGXA w.I.i.I.i.I.i.I.i.I.I.i.i.I.I.i.i.n.i.n.i.n.i.n.i.GXGXGXGXGXGXi.A n.n.n.n.n.n.h.h.h.h.h.h.c.h.h.h.h.h.c.h.h.c.h.c.c.c.h.c.c.c.c.c.c.c.c.b.c.",
"[ +.#.+.#.+.$.:.$.:.$.:.$.:.7.:.=.=.=.G.=.=.7.=.w.w.c 5 ; ; ; & ; ; 5 w.9.w.9.w.7.w.9.9.9.w.9.i.9.i.w.i.i.i.w.i.w.i.i.I.K.A A i.i.I.i.I.i.I.n.I.i.n.i.I.i.n.i.I.i.n.I.n.i.n.I.n.i.GXGXi.i.I.A n.n.n.n.i.h.h.h.h.h.h.h.h.h.c.h.c.h.c.h.c.c.h.h.c.h.c.h.c.c.c.c.c.c.b.b.c.b.",
":.%.+.%.:.%.+.$.+.%.:.$.:.$.:.7.7.=.=.7.=.7.7.P.w.:.w.K.7.7.=.w.w.w.w.w.w.9.w.9.w.9.i.w.i.i.9.w.w.i.9.i.i.i.9.i.i.i.i.w.A A i.i.I.i.I.i.I.i.i.I.i.I.n.I.i.I.n.I.n.I.n.i.n.I.n.i.A A A A A A n.n.i.n.I.k.h.h.h.h.h.h.h.c.h.h.h.h.c.h.c.h.h.c.c.h.c.c.c.c.c.c.c.c.c.b.c.c.c.",
"$.+.#.+.$.:.%.:.:.$.:.7.$.:.$.w.=.=.=.=.=.=.7.=.:.7.w.7.w.7.w.7.w.w.9.w.9.w.9.w.i.7.9.w.w.w.9.i.9.i.i.9.i.i.9.w.i.i.i.w.9.i.i.i.i.I.i.I.i.I.i.i.I.I.i.n.i.I.n.n.i.n.i.n.I.n.i.n.i.A A i.i.n.n.I.h.h.I.h.h.h.h.h.h.h.c.h.h.h.h.h.h.c.h.c.h.c.c.c.c.c.c.c.c.c.c.c.c.c.c.b.b.",
"+.$.:.$.:.$.+.$.$.:.$.:.:.7.:.$.G.7.7.=.7.=.P.7.7.w.7.w.7.w.7.w.w.w.w.9.w.9.w.9.w.w.i.i.9.i.9.w.w.i.i.w.w.i.i.i.i.w.i.i.i.i.i.i.I.i.I.i.n.I.I.n.n.i.i.I.I.n.n.i.n.I.n.I.n.i.n.I.I.n.n.I.n.I.n.n.n.i.k.h.h.h.h.h.h.h.h.h.h.c.h.c.c.h.c.h.h.c.c.h.h.c.c.c.c.c.c.c.c.h.b.b.b.",
"HX:.:.+.$.:.$.:.:.$.:.$.:.w.7.=.=.=.=.G.7.G.=.=.:.7.w.7.w.7.w.7.w.7.i.w.9.w.9.w.9.i.w.9.i.9.i.w.w.9.9.w.9.i.i.i.i.i.i.i.i.i.i.i.i.i.i.I.I.i.i.n.I.n.I.n.n.i.n.I.I.n.i.n.I.n.I.n.I.n.i.n.h.n.I.h.I.k.h.h.h.h.h.h.h.h.h.h.c.h.c.h.h.c.h.h.c.c.h.c.c.c.c.c.c.c.c.c.b.b.b.b.HX",
"HX:.:.$.+.%.:.$.7.:.$.:.$.=.=.7.7.=.=.7.7.=.P.7.7.w.7.w.7.w.7.w.7.w.w.7.w.9.w.9.9.w.i.9.w.w.i.9.i.i.i.i.i.i.i.9.i.w.i.i.i.i.i.i.i.i.i.i.n.i.I.I.i.i.I.i.I.n.i.n.n.i.n.I.n.i.n.i.n.i.I.n.h.i.k.h.h.i.h.h.h.h.h.h.h.c.h.c.h.h.h.c.c.h.c.c.c.c.c.c.c.c.c.c.c.b.c.b.b.b.b.b.HX",
"HX:.$.:.$.:.$.:.:.$.:.$.w.7.:.7.=.=.7.=.7.P.7.=.7.7.7.7.7.7.7.P.w.9.w.9.i.7.7.w.i.w.9.i.w.w.9.i.i.i.w.i.i.i.i.w.i.i.i.i.i.i.i.i.i.i.n.i.i.i.i.i.i.n.i.i.n.I.n.i.i.n.I.n.i.n.i.n.I.k.i.n.n.n.i.h.h.I.k.k.h.h.h.h.h.h.h.c.c.h.c.h.h.c.h.c.h.c.h.c.c.c.c.c.c.b.c.b.b.b.b.b.HX",
"HXHX+.:.:.$.:.:.$.:.$.:.$.:.7.:.=.7.7.7.=.=.=.=.P.=.P.=.P.P.7.7.9.w.9.w.w.w.i.i.i.9.w.i.9.i.w.i.i.i.9.i.9.w.i.i.i.i.i.i.i.i.i.i.i.i.i.i.i.n.i.n.i.i.I.n.i.n.I.n.n.I.n.i.n.I.n.I.i.k.h.I.h.i.k.I.h.h.i.k.h.h.h.h.c.h.h.h.h.h.h.c.c.h.c.c.c.c.c.c.c.c.c.c.b.c.b.c.b.b.b.HXHX",
"HXHXHX:.$.$.$.$.$.$.$.7.7.=.:.7.=.7.7.=.7.7.G.P.=.7.7.P.=.7.P.7.w.9.w.9.7.w.w.9.w.w.9.9.i.7.9.i.w.9.i.9.i.i.w.i.i.i.i.i.i.i.i.i.i.i.i.i.n.i.i.i.i.n.i.n.n.i.n.i.i.n.i.n.I.n.i.n.i.I.h.i.h.k.i.h.h.h.h.h.h.h.h.c.h.c.h.c.h.c.h.c.h.c.h.c.c.c.c.c.c.c.c.c.b.b.b.b.b.b.HXHXHX",
"HXHXHX#.$.$.$.$.$.$.7.$.%.%.%.%.7.=.7.7.=.7.7.7.P.7.7.=.P.7.7.i.9.w.7.w.i.9.i.9.9.i.i.w.w.w.i.i.i.i.i.w.i.i.9.i.i.i.i.i.i.i.i.i.i.n.i.n.i.i.i.n.i.i.n.i.I.n.I.n.n.I.n.I.n.i.n.I.k.I.h.k.h.I.h.h.h.h.h.h.h.h.h.h.h.h.h.h.c.h.c.h.h.c.c.c.c.h.h.b.c.c.c.c.b.b.b.b.b.b.HXHXHX",
"HXHXHXHX:.7.$.$.$.$.$.%.%.%.%.7.7.=.7.7.7.7.7.7.=.7.7.7.7.7.i.7.w.9.w.9.9.i.w.w.w.i.i.9.9.i.i.w.w.9.i.i.i.i.i.i.i.i.i.i.i.i.i.i.n.9.n.9.i.i.i.i.n.d.d.n.I.n.i.n.I.n.I.n.i.n.i.n.i.h.h.I.i.k.h.i.h.h.h.h.h.h.h.h.h.c.h.h.c.h.h.c.h.c.c.h.b.k.b.k.b.k.b.b.k.b.k.b.b.HXHXHXHX",
"HXHXHXHXHX:.$.$.$.7.$.%.%.%.%.%.7.=.7.=.=.7.7.7.7.7.7.7.7.i.7.7.9.w.9.w.w.i.9.i.9.9.w.w.i.i.i.9.i.i.i.i.i.i.i.i.i.i.i.i.i.i.i.i.9.n.9.n.i.n.i.n.9.d.d.d.n.i.n.i.n.i.n.i.n.I.n.I.I.h.h.h.h.I.h.k.h.h.h.h.h.h.c.h.h.h.c.h.h.c.c.h.c.c.c.c.k.k.k.b.k.k.b.k.b.b.b.b.HXHXHXHXHX",
"HXHXHXHXHXHXHX:.$.$.%.%.%.%.7.%.7.7.=.7.7.7.7.7.7.7.7.7.9.7.i.7.w.7.w.9.w.9.i.9.i.w.7.i.i.i.i.i.i.i.i.i.w.9.i.i.i.i.i.i.i.i.i.i.n.9.n.9.n.i.i.i.9.n.i.n.i.n.i.n.i.n.I.n.I.n.i.n.k.i.5.5.h.h.I.k.h.h.h.h.h.h.h.h.h.h.h.c.c.h.c.c.c.h.c.h.k.b.z.z.b.b.b.b.b.b.HXHXHXHXHXHXHX",
"HXHXHXHXHXHXHXHX$.$.%.%.%.%.%.7.=.7.7.7.7.7.7.7.7.7.7.7.7.7.7.9.7.w.i.i.i.9.w.w.i.9.w.i.i.9.w.i.9.w.i.i.i.i.i.i.i.i.i.i.i.i.i.i.9.n.i.i.i.i.i.n.n.i.n.i.n.i.n.i.n.I.n.i.n.i.n.I.5.5.j.j.j.I.h.h.h.h.h.h.h.h.c.h.c.h.c.h.h.c.h.c.c.c.c.c.b.z.z.z.k.b.b.k.b.HXHXHXHXHXHXHXHX",
"HXHXHXHXHXHXHXHXHXHXHX:.7.=.7.7.%.7.%.7.7.7.7.7.7.7.7.7.7.7.9.7.9.7.9.9.i.i.w.9.i.w.9.i.i.i.i.w.9.i.i.i.i.i.i.i.i.i.i.i.i.i.i.i.n.9.n.9.n.9.n.9.n.d.d.d.d.d.d.d.k.i.i.n.i.n.i.h.h.I.k.i.h.h.h.h.h.h.h.h.h.i.k.k.k.k.k.k.k.k.k.k.c.h.c.b.b.k.b.k.b.b.HXHXHXHXHXHXHXHXHXHXHX"
};
