/* XPM */
static char *aef9e74b1f4844c8d91dc88fb29f1c72[] = {
/* columns rows colors chars-per-pixel */
"133 49 81 1 ",
"  c #33162A",
". c #34152A",
"X c #34162A",
"o c #35162A",
"O c #36162A",
"+ c #3F1F3E",
"@ c #411E3D",
"# c #411F3D",
"$ c #421E3D",
"% c #431E3D",
"& c #421F3D",
"* c #431F3D",
"= c #401F3E",
"- c #411F3E",
"; c #441D3D",
": c #451D3D",
"> c #461D3C",
", c #471D3C",
"< c #461D3D",
"1 c #451E3C",
"2 c #441E3D",
"3 c #451E3D",
"4 c #441F3D",
"5 c #451F3D",
"6 c #461E3C",
"7 c #471E3C",
"8 c #461F3C",
"9 c #471F3C",
"0 c #461E3D",
"q c #461F3D",
"w c #4E1F3B",
"e c #4F1F3B",
"r c #481D3C",
"t c #491D3C",
"y c #4A1D3C",
"u c #481E3C",
"i c #491E3C",
"p c #481F3C",
"a c #491F3C",
"s c #4A1E3C",
"d c #4B1E3C",
"f c #4A1F3C",
"g c #4B1F3C",
"h c #4C1E3C",
"j c #4D1E3C",
"k c #4C1F3C",
"l c #4D1F3C",
"z c #4E1E3C",
"x c #4E1F3C",
"c c #4F1F3C",
"v c #501F3B",
"b c #511F3B",
"n c #521F3B",
"m c #531F3B",
"M c #541E3B",
"N c #551E3B",
"B c #541F3B",
"V c #551F3B",
"C c #561E3B",
"Z c #501F3C",
"A c #511F3C",
"S c #521F3C",
"D c #41203D",
"F c #42203D",
"G c #43203D",
"H c #40203E",
"J c #41203E",
"K c #44203D",
"L c #45203D",
"P c #46203C",
"I c #47203C",
"U c #46203D",
"Y c #48203C",
"T c #49203C",
"R c #4A203C",
"E c #4B203C",
"W c #4C203C",
"Q c #4D203C",
"! c #4E203C",
"~ c gray100",
"^ c None",
/* pixels */
"^^^^^^^^^^^HHHJJJJJJFFFFFFKFKFKKKKKKKKUKUKUUTKTTKTKYYIIIYIYYYYYYYYYYTTTTTTTTTTWTEIEIEEEEEEEEEEEEEE!EEE!EE!!!!EE!!!!!ZQQxxx^^^^^^^^^^^",
"^^^^^^^^HDDHHDJJJJJDFFFFFKFKFKKKKKKKKKKUKUKUKKKKTKTKYIIIYYYYYYYYYYYYTTTTTTTTWTWTEEEEEEEEEEEEEEE!E!EE!EE!E!!E!!!!E!!!QxZxxxxxx^^^^^^^^",
"^^^^^^^===+DHDDJJDDKFFFFKFKFFKKKKKKRKKUKKUUUKTTKKKTTIIIIYYYYYYYYTTYwTTTTTTWWTWTTEIEEEEEEEEEEEE!EEE!!EE!!E!!!E!E!!!!!Qxxxxxxxxx^^^^^^^",
"^^^^^+========-JDKDDFFFKFKFKKKKKKKKKKUKUUUUUTKKKTTKTIIIYYYYYYYYYTTTTTTTTTTTTTTTWEEEEEEEEEEEE!EEE!EEE!!!E!!EE!!!!!!!!xxxxxxxxxxxx^^^^^",
"^^^^++==*++=+*+*===KFFKKKKKDKKKKKKKKKRKKUUKRKKKTIIIIIIYYYYYYTTTTTTTTTTTWWTTTWWTTEEEEEEEEEEE!EEE!EEE!!!E!!E!!!!QQ!!QZQQxxxxxxxxZxc^^^^",
"^^^++===++*+*+*F=4D1D1=KDDKKKKKKKRKKKKKRUUKRKRTTIIIIIYYYYYYYTTTTTTTTTTTTTTWWTTTWEEEEEEEEEEE!E!E!E!!EE!E!!!!!!!ZZ!!QZxZxxxxxxZxxZcc^^^",
"^^^+====*++*+*#14=4===1144444KKKKKKKKKKKUKKKKTTKIIIIYYYYYYKTTTTTTTTTTTWWTWTTTTWWEEEEEEE!EEEEEE!E!!!!E!!!!!!!!!QQ!QQQxxxxxxZxZxZxcc^^^",
"^^++====++*+*+##=4=41KK==44444K14pKKKRRKURRKRKKTIIIYYYYYYYYTTTTTTTTTTTTTTTWTWWTWEEEEEEEEE!!E!E!EE!E!!!E!!!!!!!ZQ!QQQxxxxxZxZxZxZccS^^",
"^++======4=***+#=44=4=4=1K44444p44p4p4R4IIIIIIIYIIYYYYYYYYYwTTTTTTWTWTTTWTTWWWWTEEEE!EE!!EEEEEE!!!!E!E!!!!!!QZQQQxxxxxxZZxZxZZxZcScc^",
"^+========***F##4=444444444444444p444pKr1I1pIIIYIYYYYKYYYYTTTTTTTTTTTTWWWTTWWTWWEEEE!EE!EE!E!!!!!E!!!!!!!!!!QZQZxxxxxZxxxZxZxZZZS!cS^",
"^+======*++*#1#+=1444=4444444p4p1K1Tp4p4I11Y1Yp1pYYYTTTTTTTTTTTTWTTWTWTTTTWWTWTWEEE!EEEEE!!!!!!EE!E!!!!!!!!!QQQxxxxxxZxZZxZxZZZZ!S!S^",
"+======++*+*###*4D=4444444444444K1KK4p4p1IpY1pppppppT1TTTTTTTTTTWTTWTTTWWWWTWWTWE!EEE!!EE!E!!E!E!!!!!!!!!!!!ZQxxxxZxZxZxxZZZZZZZS!S!S",
"=======**++###**==1K4444444-4444rKTr1I1YYYp1p1YpppppppTTTrTTTTTWTTTWWTWWTWWWWWTWE!EE!EEE!!E!!!E!!!!!!!!!!!QZQQxxxZxZZxZZZZZZZZZZSS!SZ",
"======+*+***##**1K1=4444444q4p4pK11KI1I1p1pYpppppppppprTTTTTTrTWTWTTTTWTWWTTTWWWE!E!EE!!E!E!E!!!!!!!!!!!!!QZQZxxZxZxxZxZZZZZZZZZ!SSSZ",
"=======*****1***1=K=444444qq444pKpI11IYp1p1YpppppppppYwTrrTrWr~TWrWTWWWWWTWWWWWWEE!EE!!E!E!!!!!!!!!!!!!!!QQQQxxZxZxZZZZZZZZZZZZZSSSSZ",
"=====4***+*+F***K4K1444444qqp4p41I1I1p1pYY1ppppppppppyTrTTT~~~~rTTWyWyTTWWTWWWWW!EEEE!!E!!!E!!!!!!!!!!!!QQZQZZZxZxZxZZZZZZZZZZBZ!SSSB",
"+**+*+*+**1=4=4==444444444qqqqq4I1I1Y1Yp11Yppppppppppppppppp~~~xyWTyWWWyWWrWWWWWWWWWWQQQQQQQZQ!!QQQZZQQxxxxZxZxZxZxZZZZZZZZZZZZBZZBBZ",
"+++*+*+***=444441K444444p4p4qq441I1YpY1pYpppppppppxppxppppxOO~~prTWrWyWWyWWWWyWWWWWWWvQQQQQQZQ!ZZZQQQxxxxxxxZxZxZxZZZZZZZZZBBZZZZBBZB",
"+**+*+****=4=444=44444qqqqq4p4p4I1pK11YYppppppppppppppppxpxp.~~pWWWWWrrWyWyWWyWWWWWWQQQQQQQQQQQQQQQxQZxxxZxZxZxZZZZZZZZZBZBZSSZBBZBZZ",
"@@@@+***+*4=44=414444-qqqq-44p4p1ppTYpp1pppppppppp~~p~~~pxppp~~pWyr~~~~~~~WW~~~yyv~~~~QQQQZZQZZQQZxxxxxxxxZxZxZZZZZZZZZZZZZZSSSSZBZvB",
"@@@@=@@=*@@>44=4K44444pq1KK1p11r1KrrrKKTppppppp~~~~pppx~~ppxp~~xWr~~yTT~~~yy~~WWxxx~~~xxxQQQQQxxQQZxxxxxZxZxxZxZZZZZZZZBBZBZSBZBvBvBB",
"@@@@>@@>@@@*=;>444444444KKrT4rrKT1TKTTrrpppppppY~~~OpO.~~~ppp~~pW~~ OOOO~~WW~~OyxpO~~~pxxxxxxxxxZQxxxxxxxZxZZxZZZZZZBZZZZZZvZZBZBvBBB",
"@@@@=@=>>=>=>->-4>4>>4>41rrKT1KT1T1TKr1TpppppppO.~~pppp~~~xpx~~pr~~OWWrO~~WW~~WWxxx~~OxxxxxxxxxxxxxxxxZxZxZxZZZZZZZZZBZBZvvBvBZBvBvBv",
"@@@@>@@@=>=>->-;44>44>4>r11111T1T1T1TTTTppppppyY.~~pxppO~~xpp~~xr~~WyyWW~~yy~~vyxpx~~OxxxxxxxxxxxxxxxZxZxZxZZZZZZZZZZZZZvBBvBZZBBBBBB",
"@@@@@>*@>=>=>4>q>4>411>pKrKr1rrT1rTTTKTrrTTWrTTTR~~rTWTO~~pp~~~p~~~rvWWW~~y~~~yvxxp~~xxxxxxxxxxxxxxxxZxZxZxxZZZZZZBvBvBvBvvBvvBBvBBvB",
"@@*>@@>@=>=>->-;4>4>111111r1rKr1r11rrr1TTTrrTWrr4~~WWrTr~~px~~~p~~~WyWyW~~y~~~WWxxx~~xxxxxxxxxxxxxxxZxZxZxZZZZZZZvZvvvvvvBBvBBBvBBBBB",
"@>@@@@*@>=;q>->q>4>414>1r11rr11rrTrrrrTT1TTTTrTTr~~TTWWr~~xp~~~xO~~yyWWW~~WO~~WWxpx~~xxxxxxxxxxxxxxxxZxZZZZZZZZvvBBvvvvBBvBBvBBBBBBBB",
"@@@@@*>@=;->q;->q>4>4>p1KrrKTr1T1rT1TrrrrryrTTrTW~~ryrT~~Opx~~~p ~~~WWyy~~WO~~~yxxx~~xxxxxxxxxxxxxxZZxZxZZZZZvvvvvvvvBBvvBvBBBBvBBBBB",
"@=@=>>*@;4>->-;q;q;q>111pKr11rT1rrTTrTTrryTryTTWr~~~WrT~..Rp~~~xr~~~~yW~~~vW~~~~xx~~~xxxxxxxxxxxxxZxxZxZZZZZvvvvvvvBvBvBvBvBBBBBBBBBB",
"@>@>*@>@->->-;q;q;q>p1p>1r1Tr11r1TrrrrrrTrTyrTryr~~~~~~OOppx~~~pTOO~~~~y~~WvO~~~~~x~~xxxxxxxxxxxxZxZZxZxZZvvvvvBBvvvvBBvBvBBBvvBBBBBB",
">==@=>=>;->->q;q>4>4>1p1p11rrrrTrrTrTryTrTryrrWyT~~.rTrOpxpxO.OpyOOOOrWOOOyyOOOOxpO~OxxxxxxxxxxxxxZxZxxZZvvvvvvvvvvBBvBvvBvBvBBBBBBBB",
"@@>=>=;4q>-;q;q;q>4>p111ppr1TKrrTrrrTrrTyyrTWyrrr~~.OOOTxpxp..OpWWyOOOOWOOWWyOOOOOx~OxxxxxxxxxxxxZxZxZxZvvvvvvvBvBvvvBvBvBBBBBBBBBBBC",
">>=>;=>->-;->q;q1rK1rKpp11prp>prprprprypyppyywrTr~~rryvQQpxppxxxxxxpxppxpxxxx~xxxx~OxxxxxxxxxxxZZxZxZxZvvvvvBvvvBvBBvBvvBBBvBBBBBBBCB",
"=@>=->4>q>q;q;q;11r11r1pppp1>prprprpyppypyypyyyy~~OryWyypxpxxppxppxxxxxxxxxp~~~~~~xOxxxxxxxxxxxxxZxZxZvvvvvvvvvBvvBvBvBBBvBBBBBBBCCBC",
"=>=>>->4;->q;q;qr11r111Krpr1prprprprpypyypyyWyWrrOOWyyWWy<xppxxxxxpxpxxpxxxxp~~xxxOxxxxxxxxxxxxZZxZxvvvvvvvvBvBvvBvBvBvBBBBvBBBBBBBCB",
"@=>=->->->q;q;q>Kr1KrTrr11rprprprprpypyppyyyrrWyOOryWyyyyxpxxxppxpxxpxxxxxxxOOOOOOxxxxxxxxxxxxZxxZxvvvvvvvvvvvvvvvBvBvBBBvBBBBBBCBCBC",
">=>=>4>=;q;q;q;4rKrr1rr1prprprprprpypypyrTWyyyWryyyyyypxyyyyyvxxxxpxxxxxpxxxx.OxxxxxxxxxxxxxQZZZQvvvvvvvvvvvBvBvBvvBvBvBBBBBBBBBCBCCC",
"=>=>=>4>-;q>q;4>1111r1Trp1rprprprpypypypryrrWrWyyyyWy<xxxv<xxxyxpxpxxppxxxxpxxxxxxxxxxxxxxxxQZZxZvvvvvvvvvvBvvvvvBBvvBBBvBBBBBBBBCBCC",
"^4=4>=>=>q>4>p<pKr1rKrT1rrprprprpypypypyWyyWrWry<ypxyyyvx<yxxyvyyxxxxxpxxxxxxxxxxxxxxxxxxxxxZZvvvWyvvvvvvBBvvvvBBvBBBBBBBBBBBBCBCBBC^",
"^44>4>4>q;4>4<4>r111Trr11prprprpypypypypWyrWyyrWxpxxvyyypxyv<yxxxypxxxxxxpxxxxxxxxxxxxxxxxxxZvyvvvvvvvvvvvvvvBBvvBvBBvBvBBBBBCBCBCCC^",
"^->4;q;q;q<4<p>41rrrKr1rTrrrrrrTyrrTrWTyryWryyWrxpxx<y<y<xyxyxyxyxyZyZxxxpxxxxxxxxxxxxxxxxxxZxvWvvvvvvvvvBvvvBvBBvvBBBBBBBBBBCBCCCCC^",
"^^q--;qqq;4<p<p<1r1rTrTr1rTTTTryTTyyrryrrWyrWrWyxvpyyyxyyyxyxyxyxyZyZyxxxxxxxxxxxxxxxxxxxxZZxvvvyvvvvvvBvvBvvBBvvBBvBvBBBBBBCBCBBCC^^",
"^^^q>;;<;;;<1>>41r1r1rrrrrrrrrTrryTrTryWyyWWrWyyyy<xyxxpvxyxyxxxyZyZZyx<xxxxxxxxxxxxxxxxZQyvvvvWvvvvvvvvvvvvBvBvBvBBvBBBBBBBCBBCCC^^^",
"^^^;;;<;;;<<>r<<1rr>r1T1rTTrrTrrrTrrWyrWWrryyyyWyyyyyvpxxyxyxyvyxyZyyxvyZyxxxxxxxxxxxxxxQvvvyvvvvvvvvvvvBvBvvBvBvBBvBBBBBBBBBCBCCC^^^",
"^^^^q;;;>>>>>>>rr1rrrrrrrrTrryrWyyTrWryyyryWWWyyvxxp<xyxyxyxxpxyZyZyZyZyZzzZxxxxxxxxxxxxWvvvvvvvvvvvvvvBvvvBBvBvBBBBvBBBvCCBCBCCC^^^^",
"^^^^^q;;>>>>>>>>r1r>1rrrrrrryryrTrTyyrWrWWyyyyyWyypxyyxyxyxyxxx<yZyZyZyZyzzzxxxxxxxxxxxxvWvWvyvvvvvvvvvvBvvvvBvBBvBvBBBBCCCCBCCC^^^^^",
"^^^^^^^q>;>>>>r>rr1rrrrrrrrrryryrTryyWrWryWyyyyWyyypyyyxyxyxyvyyZyZyZyZyzzzzyZxxxxxxxxxxvvyvvvvvvvvvvBvBvBvBBvBvvBBBBBMMCCCBCB^^^^^^^",
"^^^^^^^^;;>>>>>r1rrrrrrrrrrryryryryWrWyyrWyyWWyyy<xxxvxyxyxyWyvvyZyZyZyZzzzzZyxxxxxxxxxxvvvvvWvvvvvvvvvvvvBvvBvBBBBvvMMMMCBCB^^^^^^^^",
"^^^^^^^^^^^4p><<<<<rrrrrrryyryryryyyWryWryWyyWyyWyyWyvyyvyWyvyvyZyZyZyZyZzzzzzzzZxxxxxxyvvvvvyvvvvvvvBvvvvBvBvBvBBvCCCMMCM^^^^^^^^^^^"
};
