/* XPM */
static char *ad1980b85968494a85b818076881bd9f[] = {
/* columns rows colors chars-per-pixel */
"133 49 75 1 ",
"  c #030001",
". c #090204",
"X c #0C0509",
"o c #0E0B0C",
"O c #140307",
"+ c #10060E",
"@ c #120C0E",
"# c #180E0F",
"$ c #140C10",
"% c #1A0B14",
"& c #1F0C1A",
"* c #161213",
"= c #191216",
"- c #1D191A",
"; c #230E1D",
": c #24141D",
"> c #2B1F26",
", c #2E1A29",
"< c #33142B",
"1 c #3E1429",
"2 c #331E2C",
"3 c #3C1835",
"4 c #2A2426",
"5 c #2B2A2C",
"6 c #312E2F",
"7 c #392C35",
"8 c #3F2A3A",
"9 c #353535",
"0 c #3A3539",
"q c #451A36",
"w c #491A37",
"e c #451B3C",
"r c #4B1C3B",
"t c #541D3B",
"y c #5B1D3B",
"u c #601C3B",
"i c #43233B",
"p c #403C3D",
"a c #483942",
"s c #444142",
"d c #4F494B",
"f c #54464D",
"g c #514D4E",
"h c #555252",
"j c #595A5A",
"k c #656161",
"l c #6D6B6C",
"z c #6B7172",
"x c #797276",
"c c #7E7D7D",
"v c #807D7D",
"b c #827E80",
"n c #888787",
"m c #8C8A8A",
"M c #908D8E",
"N c #939292",
"B c #9D9B9C",
"V c #A4A2A2",
"C c #ABADAE",
"Z c #B7B6B6",
"A c #B7BCBC",
"S c #BDBBBC",
"D c #C0BFBF",
"F c #C5C3C4",
"G c #C8C7C8",
"H c #C7C9C9",
"J c #CBCDCD",
"K c #D5D4D4",
"L c #D2D8D9",
"P c #DADADA",
"I c #E3E3E4",
"U c #E9E8E8",
"Y c #F3F3F3",
"T c #FFFFFF",
"R c None",
/* pixels */
"RRRRRRRRRRReeeeteeteeeeeefeetteeteeeteteaeteeteettteteteetetettettetttetfeeetettirtttitttrtttrtttitittttttttt8ytttttttyauyRRRRRRRRRRR",
"RRRRRRRReeaeeeeteeeeteteeeeeeeeteeteteetteetaeetteetetetteteteetteteetteettttttettrtttrtitttttttttttttttttttyytttyyatttyyytyyRRRRRRRR",
"RRRRRRReeeeeeeeeteeteeetteeeteteeteteeeeeerretteeteeefetetertefeteeteytttetteeettrtrttrirtitititttitttitwyttttttttyyyytytyttuuRRRRRRR",
"RRRRReeeeteeeteeeeeeeeeeeteteeteeateettettrrteeteetttetetetretetetetteeeettettferittirtttittttttttttttttttttttttttttttytyttyyayyRRRRR",
"RRRRereeeeteeteeeeeeeeteeeeteeeteteeteetetteteteettteetetrrtteetettetettteteteteitritiwtitttitttttttttttytttytttttttyttttttyyyyyyRRRR",
"RRRieereeeeeeeeeaeteeteeeteeeteeeteteeteeeeetaetteeeetttetrretteteetetteetetettttrttwttttttrtrtiitititttypttttttyyttyttytyytyyytyyRRR",
"RRReeeeeeeeeeeeeeeteeteeteeeteaeeeteeaeetteteeteetetetetteetteetetetttetttteetettrtttttirttttwttttttttttttttttttttttayyttyyyyyyyyyRRR",
"RReeeeeeeeeteeteeeeeeeeteeteeeteteeeteteeeteeteeeeteteeeeteaetrrteteeateteteteterrirriwtrtiritrtttitttittttttttttyytuytytytyytyyyyyRR",
"ReeeeeeeeeeeeteeeeeteeeeeeteeeetrreeetteeteetrrrteeeteaeeteerrrrrrrtrrwteeetetetrwttwritittwtwtwitttttttttttttyyttttttytyyytyyyyyyyyR",
"ReeeeeeeeeeeeeeeeteeteeeeteeteeerretrerreetterrretetetetteetrttrrrrrrrrretetterrrwwrtwwttwwtwtwttttittttwtttttayayttyytyytytyyyyyyyuR",
"Reeeeeeeeteeeeeteeeeeeeteeeeeteterrrrrrrteaeterrfeteteetteteeeeerrrrrrwrtettetrrrtrrrtwrwtittiwttwttt8tty8ttttttuuyttyytytyyyyauyyyuR",
"eeeeeeeaeeeeeeeeteeteeeeeteteeeerrerrrrerrrrrrrreeteeeteetettettrrrrrrrreteeterrrwrwwrwrwwwtwttwitwttwtttttttyttttttyttytyyyyuuuyyyyu",
"ieeeeeeeeeeaeeeeeeeeeeeeteeeteteeeerteeeeeetrrrrteetetteeeteetterterrrwrrrwrerrrrrrrwrwwtwwttwttwtwttwtwttttttttyytttytttytytyyyyyyyy",
"eeeeeeeeeeeeeeeeeeetteeteeeeeeeeeeereetteteerrrreteteeeteteteeeerwrrrerrwwrrrrrrewrwrwwtitwwwwwwwwtwittttttwtttttttyytyyyyyyyyyyyuyuu",
"eeeeeeeeeeeeeeeeeteeeeeeeeeeeet3+=7eeteeteterrrrtteeeeteeteetrrtwrrwrwrrrwrqrrerwiwrwwwwwwwwtwtwtwtttwtwwtttttttyttytytytyyyyyyyyyyyy",
"ieeeeeeeeeeeteteeeeeeteeteeeee&mHV=eeeteeeterrrreeeetetetetereeerrrrwwewrwwrwrrewrwwwrwiwwwtwwwtwtwttttttttttttttttyytytyytyyyyyyuyyy",
"eeeeeeeeeeeeeeeeeeetrerereeq&&lYTT.qerrrrrerrrerrrreeerrrrrrwrrrqrrrqwwqqwwwewwwwwrqwTTTwwwwwrwwtwtwtw1twttttttttytytyytyyyyyyyyuuyuy",
"eeeeeeeeeteeeeeeeeeeeeere3,2kcTTUx;eereerrrrerrerrrrrrrrrrrrrweqweqrweqrwwqwwwweqqqwqwTTwwwwwwrwwwwtwtyttywyttttttytyttyyyyyyyyyyuuyu",
"eeeeeeeeeeeeeeeeeeeeeeeqq5=MTYPPz@eqwwwwwwwwerrrrrrrrrreewerewqrwqrqwerqqqqqqwqwqqwqqwwqwwwTwwwwwwwwtwywwyywtttttttytytytyytyyyyuyuyu",
"eeeeeeeeeeeeeeeeeeaeee<o.GYTK  XX@%#@@o@oo@*=rrrrrrrrerwreewwewTTTTTwqwqqTTTqqqqqTTTTqTTw1TTTTTTTTTTYwwtwtwywtttttytytyyyyyyyyyyfuyyy",
"eeeeeeeeeeeeaeeeeee,++9JHTTTYSSDFJJJJJJJJJJJC:rreererrwewwewwrTTwqqTTqeqqqqTTqqTTqqTqTTTqqwwwTTwwwwTwytwttwyttytttytyyyttyyyyyyyuyuuy",
"eeeeeeeeeeeeeeeeeee;bmDTTTTTTTTTTTTTTTTTTTTTT-rerrrerrrrreweqTTqeeqTTTqwqqqTTTqTqqqqqqTTqqqwTTwwwwwTwwwtwyywwytytyttyttyyyyyyyyyyuyuy",
"eaeeeeeeeefeeeeeeee+ITTTTTTTTTTTTIcnmmNVVBVVn:errrreerrreeewqTTwqqeqqqTqqqqqTTTTqqqqqqTTqqqTTqwwwwwwwtwtwtwyywtttttytyyyyyyyyyyyyuyuu",
"eeeeeeeeeeeeeeeetee;HYTTTTTTTTTTTF *--@ XXXX%erreerrrewewweqqTTqqwqqqqqqqqqqTTTq1qqqqqTTqqqTTwwwwwwwwwtwtttwywtttyytyttytyyyyyuyuyuyu",
"eeeeeeeeeeeeeeeeeee+FTTTTTTTTTTTTTTTTTAOerrrrerrrrrrereeewewTTTqewqqqqqqqqqqqTTqqqqqqqTTqqqTTqwwtwwwttwtttwtywyttttttttyyyyyyyyyyuyyu",
"eeeeeeeeeeeieeeeeeeoFTTTTTTTTTTTTTTTTTK.rreerreererrrqwwwewwTTTqqqeqqqq3qqqqTTTTqq1qqqTTqqqTTqqwwwwwwwtwwytwtytyytyyyyyyyyyyyyyyuyuuu",
"eeeeeeeeeeeeieeeeeeXFTTTTTTTTTTTTJ60sjf1rerrerererrreweeewwwqTTqeqqqqqqqqq3qTTTTqqqq1qTTqq1TTqqwwwwwtwwttwwtttytttytyttytyyyyyyyyuyuu",
"eeeeeeeeeeeeeeeeeeeoFTTTTTTTTTTTTKsgh5%eererrerereerrewweeqeqTTTqqqqqTTqqqqTTqTTTqqqqqTTqwqTTTwwwwtTwwtwtwytwytwtttyyyyyyyyyyyyyyuuyy",
"eeeeeeeeeeeeeeeereeoFTTTTTTTTTTTTTTTTV&ererrreerreweewereweeqqTTTqqqTTq33qqTqqqTTTqqqTTTqqqwTTTqwwTTwwtwtwtwwtttytytyyttyyyyyyuuuuyuu",
"eeeeeeeeeeeeeeeereeoGTTTTTTTTTTTYYYYYM&eerrereeeererreweewwqqqqTTTTTqqqqqqTT1qq3TTTTqTTTqqqwqTTTTTTwtwwttwtttttttttytyyyyyyyyyyuyuuuy",
"eeeeeeeeeeeeeeeeeeeXKTTTTTTTTTTTM @@>3erteererrrrereeweeeweeqqqeqqqqqeqqqqTqqqqq1qqqqqqqqqqqqqwwwwwwwwtwttwtttttttyttytyyyyyyyyuuyuuu",
"eeeeeeeeeeeeeeeeeee*s9BTTTTTTTTTLNVJd;eeeeeereeeererreeweweeqeqqqqqq3qqqqTq3qqqqqqqqqqqqqqqqqwwwwwtwttwtwtttttttyttyytyuayyyyuyyyuyyy",
"eeeeeeeeeeeeeeeeeeeeeeeNNzLYYTTTTTTAaieeeerereeeeeeteereeeereqqqeqqqqweeYq3q3qqqqqqqqqwwwwwwrerrrwwrttwteyttttttytyttytytyyyyyyuuuuuu",
"eeeeeeeeeeeeeeeeeeeeeeee3,zHAFADDDZXeeeeerereeerteeeeeerreeeqeeqqqeqqweYwqwqwqqqqqqqqwqwqwwwrreerwwtwrtrtteyttyytttyytyyyyyyyuyyyuuuu",
"eeeeeeeeeeeeeeeeeeeeeeeeee&+++++X++errrerreeerreeeteeeeereeeeqeqqeqeqqqqeeqqqqqwqqeqwqwwwwewreetwrwrtwwteyyetttetyytyyyyyyyyyuyyuyuuu",
"eeeeeeeeeeeeeeeeeeeeeeeeeeeeeeeeeeeereeereereereeeeeeteeeereqrqeqqqeqqqeqewqqeeqweqwqwwwwewewweetwtwtrtwyetttttttttytytttyyyyyyyyuyuu",
"eeeeeeeeeeeeeeeeeeeeeeeeeeeeeeeeeeereeereeerrrerteeeeeteereqeqeqeeqqqqeqeqqqwweqwwqeeewewwwweyeyrwwrwwtteytyyeyuteyyyyyytyyyyyuyyuuuu",
"eeeeeeeeeeeeeeeeeeeeeeeeeeeeeeeereeeeeeeereeeeireeeeeeeeeereeeweeqweeqwqwweqewwwqewwwwwwweweeteewrttrtwryeteyyeeyyyeyetyyyyyyyyuuyuyu",
"ReeeeeeeeeeeeeeeeeeeeeeeeeeeeeeeieeeeeiererereeeeeeeeteeeeerreeqeqewweqewqwwwwwwewweweeewrwweeeurtrwrtttetyeeytytytyyyeyyyyyyyyuyyuuR",
"ReeeeeeeeeeeeeeeeeeeeeeeeeeeeeeeeeeerreeireeeereeeeeeeeeererqeweeeqeeweqeeweeewewwewwwwrrwrweyeerrrtrrtryeyyeyttttyyyyuytyyyyyuuyuuuR",
"ReeeeeeeeeeeeeeeeeeeeeeeeeeeeeeeeeeeeeeeeeeeieereteeeeeeeeeeeeeeweweeewweeewewewewewwrwreyeeeyeerrtwyrrryrtteuttyeeyyuytyyyyyyyuyyyuR",
"RReeeeeeeeeeeeeeeeeeeeeeeeeeeeeeeeeeeeeeeerereeeeeeeeeteeeeeeeeeweeeweeerreweeereeerwrrreeeyeeyetwrtrryrrttttuttyyuyyeyytyyyyuyyuyuRR",
"RRReeeeeeeeeeeeeeeeeeeeeeeeeeeeeeeeeeeeeeeeeeeeeeteeeeeeeeeeeeeeeewwwewewwwewwrrwrwrrrwreyeeeeeerrrryryrttttueyuyeeyyeyyyyyyyyyyuuRRR",
"RRReeeeeeeeeeeeeeeeeeeeeeeeeeeeeeeeeeeeeeeeeereeeeeeeeeeeeeeeeeeeeeeeeweeweeewewwwrrwrrreeyeeueurtrrrrrretteeyeeyyyyyyttyyyyyyyyuuRRR",
"RRRReeeeeeeeeeeeeeeeeeeeeeeeeeeeeeeeeeeeeeeeeereeeeeeeteeteeeeeeweeeeewererereerrrerrrrreeyyeyyetttrrtrytttttttyeyeutyyyyyyyyyyuuRRRR",
"RRRRReeeeeeeeeeeeeeeeeeeeeeeeeeeeeeeeeeeeeeeeieeeeeeeeeeeeeeeeeeweeeeeewrwerrrrerrrrrrrryeeeeeeyrrrrtrrretttyettyyeyttytyyytuyyyRRRRR",
"RRRRRRReeeeeeeeeeeeeeeeeeeeeeeeeeeeeeeeeeeeeeeeeeeeeeeeeeeeeeeeereereewreeererrrrrrreerreeyeyeeerrrtrrttyeyteeytueuytyyytyyyyyRRRRRRR",
"RRRRRRRReeeeeeeeeeeeeeeeeeeeeeeeeeeeeeeeeeeeeeeeeeeeeaeeeeeeeeeeeeeerrereerereerrerrrtetyeeeyeyetrtrtrtreyeyyytteyuetyyeyyyyyRRRRRRRR",
"RRRRRRRRRRReeeeeeeeeeeeeeeeeeeeeeeeeeeeeeeeeeeeeeeeeeeeeeeeeeeeeeereeereerererereeeyeeeyeeeueeeyeyeyeeyeyeyeyyefueueuueuuyRRRRRRRRRRR"
};
