/* XPM */
static char *_2aba26ccb4143c18f7c590ae755c1d7[] = {
/* columns rows colors chars-per-pixel */
"133 49 203 2 ",
"   c #411935",
".  c #421934",
"X  c #421935",
"o  c #431935",
"O  c #421A35",
"+  c #431A35",
"@  c #421936",
"#  c #431936",
"$  c #421937",
"%  c #431937",
"&  c #431A36",
"*  c #431A37",
"=  c #441935",
"-  c #441A35",
";  c #451A35",
":  c #441936",
">  c #451936",
",  c #441937",
"<  c #451937",
"1  c #441A36",
"2  c #451A36",
"3  c #441A37",
"4  c #451A37",
"5  c #451B37",
"6  c #461A36",
"7  c #471A36",
"8  c #461A37",
"9  c #471A37",
"0  c #461B37",
"q  c #471B37",
"w  c #481B37",
"e  c #431A38",
"r  c #441A38",
"t  c #451A38",
"y  c #451B38",
"u  c #441A39",
"i  c #451A39",
"p  c #441B39",
"a  c #451B39",
"s  c #461A38",
"d  c #471A38",
"f  c #461B38",
"g  c #471B38",
"h  c #461A39",
"j  c #471A39",
"k  c #461B39",
"l  c #471B39",
"z  c #441B3A",
"x  c #451B3A",
"c  c #441B3B",
"v  c #451B3B",
"b  c #461B3A",
"n  c #471B3A",
"m  c #461B3B",
"M  c #471B3B",
"N  c #471C39",
"B  c #441C3B",
"V  c #451C3B",
"C  c #461C3B",
"Z  c #471C3B",
"A  c #411B3D",
"S  c #421B3D",
"D  c #431B3D",
"F  c #441B3C",
"G  c #451B3C",
"H  c #441B3D",
"J  c #451B3D",
"K  c #431C3D",
"L  c #441C3C",
"P  c #451C3C",
"I  c #441C3D",
"U  c #451C3D",
"Y  c #461C3C",
"T  c #471C3C",
"R  c #471D3C",
"E  c #461C3D",
"W  c #481A38",
"Q  c #481B38",
"!  c #491B38",
"~  c #481A39",
"^  c #481B39",
"/  c #491B39",
"(  c #4A1B39",
")  c #481B3A",
"_  c #491B3A",
"`  c #481B3B",
"'  c #491B3B",
"]  c #4A1B3A",
"[  c #4B1B3A",
"{  c #4A1B3B",
"}  c #4B1B3B",
"|  c #4C1B3B",
" . c #481C39",
".. c #491C39",
"X. c #4A1C39",
"o. c #4B1C39",
"O. c #481C3A",
"+. c #491C3A",
"@. c #481C3B",
"#. c #491C3B",
"$. c #491D3B",
"%. c #4A1C3A",
"&. c #4B1C3A",
"*. c #4A1C3B",
"=. c #4B1C3B",
"-. c #4A1D3B",
";. c #4B1D3B",
":. c #4C1C39",
">. c #4C1C3A",
",. c #4D1C3A",
"<. c #4D1D3A",
"1. c #4C1C3B",
"2. c #4D1C3B",
"3. c #4C1D3B",
"4. c #4D1D3B",
"5. c #4E1C3A",
"6. c #4E1D3A",
"7. c #4F1D3A",
"8. c #4E1C3B",
"9. c #4E1D3B",
"0. c #4F1D3B",
"q. c #4D1E3B",
"w. c #4E1E3A",
"e. c #4F1E3A",
"r. c #4E1E3B",
"t. c #4F1E3B",
"y. c #481C3C",
"u. c #491C3C",
"i. c #481D3C",
"p. c #491D3C",
"a. c #4A1C3C",
"s. c #4B1C3C",
"d. c #4A1D3C",
"f. c #4B1D3C",
"g. c #4C1C3C",
"h. c #4D1C3C",
"j. c #4C1D3C",
"k. c #4D1D3C",
"l. c #4E1C3C",
"z. c #4F1C3C",
"x. c #4E1D3C",
"c. c #4F1D3C",
"v. c #4D1E3C",
"b. c #4E1E3C",
"n. c #501D3A",
"m. c #501D3B",
"M. c #511D3B",
"N. c #521D3B",
"B. c #531D3B",
"V. c #501E3B",
"C. c #511E3B",
"Z. c #521E3B",
"A. c #531E3B",
"S. c #541D3B",
"D. c #551D3B",
"F. c #561D3B",
"G. c #571D3B",
"H. c #541E3B",
"J. c #551E3B",
"K. c #561E3B",
"L. c #571E3B",
"P. c #501C3C",
"I. c #511C3C",
"U. c #501D3C",
"Y. c #511D3C",
"T. c #521C3C",
"R. c #531C3C",
"E. c #521D3C",
"W. c #531D3C",
"Q. c #541C3C",
"!. c #551C3C",
"~. c #541D3C",
"^. c #551D3C",
"/. c #561C3C",
"(. c #571C3C",
"). c #561D3C",
"_. c #571D3C",
"`. c #581C3B",
"'. c #591C3B",
"]. c #581D3B",
"[. c #591D3B",
"{. c #5A1C3B",
"}. c #5B1C3B",
"|. c #5A1D3B",
" X c #5B1D3B",
".X c #581E3B",
"XX c #591E3B",
"oX c #5A1E3B",
"OX c #5C1C3B",
"+X c #5D1C3B",
"@X c #5C1D3B",
"#X c #5D1D3B",
"$X c #5E1C3B",
"%X c #5F1C3B",
"&X c #5E1D3B",
"*X c #5F1D3B",
"=X c #581C3C",
"-X c #591C3C",
";X c #581D3C",
":X c #5A1C3C",
">X c #601C3B",
",X c gray100",
"<X c None",
/* pixels */
"<X<X<X<X<X<X<X<X<X<X<XY Y E i.i.i.i.i.i.i.i.i.i.v.E ;.i.i.E q.E v.{ E q.E q.E q.v.v.v.v.v.{ v.v.| v.{ v.v.v.{ v.{ v.v.v.| v.g.b.g.b.g.b.U.v.v.v.U.v.b.b.b.b.b.b.b.b.e.b.e.b.b.e.b.b.e.b.e.b.e.J.e.b.J.b.J.b.J.J.b.J.J.J.b.J.b.J.J.J.J.J.J.J..XJ..X.X<X<X<X<X<X<X<X<X<X<X<X",
"<X<X<X<X<X<X<X<XY Y E *.Y *.Y *.i.i.i.i.i.;.i.i.i.;.E v.i.v.v.q.q.E v.E E v.v.v.| E E { v.E E v.{ v.v.v.{ v.{ v.v.v.| v.| v.b.g.b.g.g.b.v.U.U.v.b.v.b.b.b.b.b.b.b.b.b.e.b.e.e.b.e.J.e.J.J.b.J.b.e.J.e.b.e.J.J.e.J.J.e.J.J.J.J.J.J.J.J.J..XJ.J..X.XJ.J..X.X<X<X<X<X<X<X<X<X",
"<X<X<X<X<X<X<XY Y Y Y Y Y Y Y E E *.i.i.q.E i.i.i.E ;.i.E q.E q.E q.q.E q.E q.E v.v.v.v.{ v.v.{ E v.| { v.g.g.g.v.{ v.| g.U.g.b.v.g.b.g.v.| U.v.b.b.b.b.b.b.b.b.b.b.e.b.e.e.b.e.e.b.b.e.b.e.e.J.b.J.b.J.J.J.b.J.J.e.J.J.J.J.e.J.J.J.J.J..XJ.J.J..X.X.X.X.X.X<X<X<X<X<X<X<X",
"<X<X<X<X<XY Y Y Y *.E *.E *.E *.*.E *.E E i.i.i.i.v.i.i.*.E q.E q.E v.q.E q.v.{ v.E { v.v.v.E v.v.v.v.v.g.g.g.g.v.| v.v.g.g.g.g.g.v.g.v.v.v.v.U.v.v.v.v.v.v.v.b.b.b.b.e.b.J.e.b.J.e.b.J.J.e.b.b.J.e.e.J.e.b.e.J.J.J.b.e.J.J.J.J.J.J.J.J.J.J..X.XJ..X.X.X.XoX.X.X<X<X<X<X<X",
"<X<X<X<XY E E Y Y E *.E Y *.Y *.E *.E *.E *.E ;.q.E *.E i.E ;.i.q.v.{ E q.E v.q.{ E v.v.v.{ E q.E v.v.v.v.g.v.d.E q.v.v.q.>.` q.v.g.v.| v.v.v.| v.U.v.v.v.v.v.v.v.v.q.q.q.e.e.e.b.e.b.J.e.b.e.J.b.e.e.J.J.e.J.J.J.J.e.J.e.J.J.J.J.J.J.J..XJ.J..XJ.oXJ.oXoX.X.X@X{.<X<X<X<X",
"<X<X<XE Y Y E Y Y Y Y Y Y E Y E *.E *.E *.E *.E E q.E q.i.v.E v.E q.E v.E q.E E v.v.E { v.E v.v.q.q.E q.d.d.g.d.v.*.E q.>.q.q.q.v.v.>.v.v.| >.v.v.>.q.v.v.v.q.v.q.q.b.e.e.e.q.q.J.b.e.b.b.e.b.J.J.J.b.J.b.J.J.b.e.J.J.J.J.J.J.J.J.J.J.J..XJ..X.XoXJ.oXJ..X@XoXoXoXOX<X<X<X",
"<X<X<XE E E E Y Y Y Y *.E *.Y Y E *.E *.E *.E *.*.E q.E i.*.;.i.q.E E q.q.v.E q.v.v.v.v.v.E q.E v.{ v.E E v.i.v.q.*.q.q.v.` q.*.v.v.q.>.v.v.>.>.>.v.v.>.q.q.q.q.q.q.q.e.q.e.q.q.e.b.e.J.J.J.e.e.e.b.J.b.J.e.e.J.e.J.J.J.J.J.P.J.J.J..X.XJ.J..XJ.J.oXoXoX{.oXoXoXoXoX<X<X<X",
"<X<XE E E E E Y Y Y Y E Y Y *.E *.E *.E *.E *.E E q.E q.E E v.i.E v.q.E q.E q.E { E E q.E q.v.{ q.E *.q.q.v.E v.*.*.q.E | >.q.*.E v.` q.` >.| v.| >.>.` q.q.q.q.q.q.q.q.e.q.e.q.b.e.b.e.e.b.b.J.e.J.e.J.b.J.b.J.J.J.e.e.J.J.J.J.J.J.J.J.J..X.X.XoXJ.J.{.oX{.oXoXoX@X@X<X<X",
"<XE E K E E E Y Y Y Y Y Y Y E Y *.E *.E *.E *.E q.{ E E v.E E v.E v.E v.E v.q.v.i.i.$.;.;.;.*.*.*.*.*.*.;.;.;.q.*.*.q.*.*.q.*.*.q.` ` q.>.:.>.:.>.>.>.>.>.>.>.| >.v.>.q.P.q.e.e.e.b.b.e.b.J.e.J.J.J.b.J.e.J.b.J.e.b.J.J.J.J.J.J.J.J.J.J.J.J.J.oXoXF.F.{.oXoX{.oX@XoX@X@X<X",
"<XE E E E E E Y Y Y Y Y *.E *.Y E *.E *.E *.E *.E { { { { { { { { { v.E E v.E *.i.i.i.$.$.;.;.*.*.*.*.*.*.*.*.*.*.*.*.*.q.w *.q.>.>.>.*.` ` >.q.>.>.>.:.>.>.q.| >.>.| v.q.q.P.:.e.e.e.J.e.e.b.e.b.e.e.J.J.J.J.J.J.J.J.J.J.J.J.J.J.J.J.oXJ.oXJ.J.J.{.oX{.F.{.oX{.oX@XoX@X<X",
"<XE K E E K E Y Y Y Y Y Y Y Y *.*.E *.E *.E *.E E { { v.E E E E E v.E { q.E q.E i.i.$.;.;.$.*.*.*.*.*.*.;.*.*.*.*.*.*.*.*.*.*.*.` :.q.*.:.` *.:.>.>.>.q.>.>.>.>.>.>.>.>.>.>.P.P.e.e.e.b.b.e.e.J.e.J.J.b.J.b.J.J.J.b.J.J.J.P.J.J.J.oXJ.J.oXF.F.{.{.oX{.oX{.oX{.oX@XoX@X@X<X",
"K E K E E K E E Y Y Y Y *.E Y E Y *.E *.E *.E *.E q.E E v.{ { v.{ { v.| { E E q.*.q.$.$.;.*.*.*.*.*.*.*.w *.*.*.w *.w *.;.w *.*.q.w w :.w :.:.:.>.` >.` >.>.>.` >.>.>.>.>.5.q.>.e.e.e.e.e.b.e.e.J.b.e.J.e.J.b.e.J.J.J.e.J.J.J.J.J.J.J.F.J.{.F.F.J.{.J.{.oX{.oX{.@X@X@X@X@X",
"E E E K E E E E Y Y Y Y Y Y Y Y Y Y Y E *.E *.E *.E { { { E v.{ { { E q.E Y Z *.;.$.$.Z *.*.*.Z *.Z w ;.*.Z ;.;.*.*.;.*.w ;.- ;.w ` w q.w ` w ` >.w :.` ` q.w q.>.>.>.q.>.5.>.5.q.P.P.n.e.e.e.e.b.e.J.e.J.e.J.J.J.e.P.J.J.J.P.J.F.F.F.F.F.{.J.oXF.oX{.oX{.oX{.oX@X@X@X@XoX",
"K K E K E K E E E Y Y Y E E *.E E *.E *.E *.E *.E E E q.{ E E { q.E E E *.*.*.*.*.$.*.*.Z *.*.*.*.*.Z $.;.- - ;.*.w - *.;.- *.w ` w ` w ` w w >.` >.w >.:.w :.` w :.>.` 5.>.5.>.q.q.n.:.n.n.P.P.b.J.e.J.b.J.e.J.J.J.J.J.J.J.F.F.F.F.F.F.J.{.F.{.{.{.J.{.oX{.oXOX@X@X@X@X>X",
"E E E E E E K E E Y Y Y E E *.Y Y Y *.Y *.E *.E *.E E E v.E E v.E *.E Y E q.*.Z Z *.Z Z Z w ` ` - Z *.N $.$.- w w *.w w - *.w *.w w w w ` w ` w w :.w w w >.w >.w q.:.>.>.>.>.5.>.n.:.P.n.:.n.P.P.J.P.e.J.e.J.P.b.J.J.J.J.J.F.F.F.F.F.F.J.F.J.{.J.{.{.oX{.oXOXoX@X@XoX>XoX",
"K K K E K E E E E E Y Y E E E *.E *.E Y E *.E *.E *.E { { E { { *.E *.*.*.` *.*.` *.Z *.*.*.w ` ;.Z - ;.- $.Z Z *.- w Z *.- Z - ` w ` w w w 0 w w w w :.` w w w :.` w >.>.>.>.>.>.q.:.n.n.n.n.n.e.P.J.P.J.P.J.J.J.J.P.J.P.J.F.F.F.F.F.F.{.J.{.J.{.oXoX{.oX{.oXOX@X@X@XoX>X",
"E K E E E E E K E E Y Y Y Y Y Y *.E *.Y *.E *.E *.E *.E *.E *.E *.E *.*.Z *.*.` ` ` ` ` w c ` w w *.w ` w ` c 0 0 w 0 0 0 0 0 0 0 0 w 0 w 0 ,X,X,Xw w w w w w w ` :.>.w >.:.>.>.5.>.5.5.P.P.n.P.n.P.n.D.J.n.n.D.P.J.F.J.J.J.F.F.F.F.F.F.F.{.J.F.{.oX{.oX{.oXOXoX@X@X>XoX>X",
"K K K K K K E E E E E Y Y Y E Y Y Y E Y E Y E *.E *.E *.E *.{ q.E *.E *.Z Z ` ` ` ` w ` ` ` w ` Z w c w 0 0 0 0 c w c 0 0 0 0 0 0 0 0 w , w , ,X,X7 w w w w w ` w w w ` ` :.:.>.>.5.P.5.:.P.n.n.P.n.P.P.P.P.J.D.J.(.5.J.F.(.5.F.F.F.J.{.F.J.{.oXJ.{.J.{.oX{.oXOX@X@XoX>XoX",
"K E E E E E K E E E E Y Y Y Y Y Y Y *.Y *.Y E *.*.E *.E *.E { E *.E *.Z *.` ` ` ` ` ` ` c w w ` 0 0 0 c c w 0 $ 0 0 0 0 0 0 0 0 0 0 , . 0 0 0 , = 0 w 0 ,Xw w w w ` w w >.w :.>.>.>.5.5.q.n.n.n.n.P.n.J.D.n.J.P.P.J.5.(.5.(.F.F.F.F.F.F.F.{.J.{.{.oX{.oX{.oXOX@X@X@X>XoX>X",
"K K K K E K E E E E E Y Y Y Y Y E *.E Y E Y *.E E *.E *.E *.E E E Z Z Z Z c ` ` w ` w ` ` w c , ,X,X,X,X,X0 0 0 0 0 ,X,X,X, 0 . 0 . ,X,X,X,X. ,X,X0 = ,X,X,X,X,X,X,X,X,X,X,X:.:.>.5.>.5.P.q.:.P.n.e.P.n.D.P.n.D.F.J.F.F.J.J.F.F.F.J.{.F.F.oX{.J.oX{.oX{.oXOXoX@XoX>XoX>X*X",
"E E K K E E K K E E E E Y Y Y Y *.Y Y Y E *.Y Y E *.E *.*.E *.E Y E *.*.` ` ` w ` ` w ` 0 c c ,X,X0 0 , ,X,X0 0 ,   0 . ,X,X0 0 ,X,X0 . ,X. ,X,X,X0 0 0 7 , ,X,Xw w ` w ,X` :.:.>.>.>.5.5.5.P.P.n.e.P.J.P.n.J.D.5.F.5.J.F.F.5.J.F.F.J.F.{.J.F.{.oX{.oX{.OXoXOX@X@X>XoXoX*X",
"K K K E K E E E E E K E E Y Y Y Y Y *.E Y Y *.E *.E *.E E *.E *.Y *.*.Z ` ` ` c w c c ` c w ,X,X0 c c $ ,X,X,X% 0 % $ 0 ,X,X,X  ,X.   0 . . 0 ,X,X. . 0 . ,X,X7 7 w w w ,Xw w :.>.>.5.5.5.q.q.P.n.P.P.n.J.P.J.P.J.F.F.F.F.F.(.J.F.F.{.F.J.{.oX{.{.oX{.oXoXOX@X@X@XoX>X*XoX",
"K K K E K E E K K E E E E Y Y Y Y Y E Y E Y E Y E *.E *.*.E *.E Z Z Z Z ` c ` ` ` 0 c w w 0 ,X,X0 0 0 % 0 % 0 ,X0 .   . . ,X,X,X,X  . .   0   ,X,X. . 0 ,X,Xw 7 7 w w w w :.` :.>.>.5.>.5.5.>.P.P.e.e.P.P.J.J.P.J.(.5.(.F.F.F.F.F.F.F.J.{.J.{.J.J.{.oX{.oXOX@X@XoX>XoX*X>X",
"E E K K K K E E E E K E E E Y Y Y Y *.Y *.Y *.Y E Y Y *.E *.E *.Z Z Z *.` ` w c c ` w c c 0 ,X,X% $ % 0 % . , . $ $ 0 .   ,X,X,X0 . 0 . . . . ,X,X0 . . ,X,X= 7 7 w w ` w w w :.>.>.>.>.5.5.q.P.e.P.n.J.P.J.P.J.P.5.J.J.F.J.5.F.F.F.F.{.J.{.oX{.{.oX{.oXOXoX@X@X>XoX>X*X*X",
"K K E K K K E E E E K K E E E Y Y Y Z E E Y *.E *.Y Y E *.*.E *.Y Z Z ` ` ` ` ` c ` c 0 0 ,X,X,Xc % 0 $ $ . % % % % . %     ,X,X  . . . = . , ,X,X. 0 . ,X,X0 7 7 W w ` w w >.w >.>.>.>.U.5.P.P.P.e.U.P.J.P.J.P.P.J.J.5.J.F.F.F.F.F.F.J.J.{.J.{.oX{.{.oX{.OX@X@XoX>X*X*X*X",
"K K K K E K K K K E E E E E E E Y Y Y Y Z *.E E E Y Y *.Y E Y Y Y Z Z c ` c 0 ` ` c w c , ,X,X,X% 0 $ % 0 % % . % . . .   ,X,X,X,X  . . . . . ,X,X. 0 . ,X,X= w W 7 w w w ` ` :.>.>.>.5.| 5.>.U.e.P.U.U.P.J.P.J.J.P.J.F.F.F.F.F.F.J.{.{.{.J.{.oX{.oXoX@X@XoX@X@X>XoXoX>X*X",
"K K K E E K E K E E E E K K E E Y Y Y Y Y Y E E *.E *.E Y *.Y E Y *.*.` ` c ` c 0 c c 0 c , ,X,X$ 0 $ % . % % .   . . .   ,X,X,X,X. . . . . . ,X,X. . . ,X,X= w 7 7 w w w w w :.:.>.>.>.5.5.q.P.P.e.U.U.e.P.J.P.P.J.F.F.5.F.F.F.F.F.J.F.oXF.F.{.J.{.oX{.@X@X@X@XoX>X*X*X*X",
"D D D H D K E K K K E E E E E E Y Y Y Y Y Y Y Y Y Y Y Y Y E Y Z Y Z Z c c ` c ` ` c w c , c ,X,X,X$ $ 0 % % ,X,X%   %   ,X,X  ,X,X,X= 0 . , . ,X,X7 . w ,X,X,X= 7 w w ` ,Xw >.` :.>.>.5.>.5.>.P.e.P.U.U.J.J.P.J.(.5.F.J.J.F.F.F.F.F.{.F.J.{.F.oX{.oX{.oXoX@X@X@X>XoX*X*X*X",
"D D D D D H H H H E E E E K K E Y E E Y Y Y Y Y Z E Y *.E Y Y Y Z Z Z c ` ` c 0 0 c 0 0 c $ 0 ,X,X,X$ $ % ,X,X% %   . % ,X  . . ,X,X,X% . = ,X,X,X  . . w ,X,X,X7 w w ,X,Xw w >.:.>.>.5.>.5.>.P.q.U.U.U.P.U.(.b.J.P.J.5.F.F.(.5.F.F.F.F.J.{.J.{.{.oX{.oXOX@X@X@X>X*X*X*X*X",
"D D D D H H H H H H H H E E E E Y E E E Y Y Y Y Y Y Y E *.Y Y Y B Z B Z c c ` ` c c 0 c 0 c $ c ,X,X,X,X,X. . %   % . ,X,X  %   . ,X,X,X,X  ,X,X,X.   0 . 0 ,X,X,X,X,X,X` w :.` w >.5.>.5.>.q.P.P.U.U.b.P.J.(.U.U.J.J.F.5.J.J.F.F.F.J.{.{.F.{.oXoX{.oX@XoXOX@X@XoX>XoX>X*X",
"D D D D D H H H H H H H D H E E E E E E Y Y Y Y Y Y Y Y Y Y E Z Z Z ` c ` c ` c c c c 0 $ 0 0 $ 0 $ $ $ %   %   %     ,X. . . % . . % . . =   . 0 . 0 0 0 w 0 0 0 w w w w 7 >.w >.` >.5.>.| U.q.P.q.U.(.b.(.b.(.(.U.Q.J.(.J.F.F.F.F.F.{.{.oX{.J.{.oX{.@X@X@X@X@X>XoXoX*X*X",
"D D D D D D H H H H H H H H H H D K E E Y Y Y Y Y Y Y Y Y *.E Y Z *.c ` c ` c 0 ` c 0 c c $ c 0 c $ $ $ $ %   %   % ,X%   % . . % . . = % . . 0 0   0 . 0 . 0 w w c w ` w >.>.>.>.>.>.>.P.>.P.P.e.P.U.U.U.U.U.b.U.(.U.P.F.J.F.F.F.F.F.J.J.{.J.{.oX{.oX@X@X@X@X@XoX*X>X*X*X",
"D D D D D D D D D D H H H H H H H E J H E H E { J J Y Y Y Y Y Y Y Y Z Z c c c c ` c c 0 c 0 0 $ $ $ 0 $ $ * * $ $ ,X$ $ % % % % . % % % = , , , = , 0 , 0 , 0 w w w w w w :.w >.>.>.>.>.| | U.5.P.q.U.U.U.U.U.U.b.Q.~.~.~.J.(.J.(.J.(.J.{.J.{.J.{.oX{.oX{.@X@X@X>X@X>X>X>X",
"D D D D D D D D D D H H H H H H E H J J H E H E J { Y Y Y Y Y Y Y Y Z Z Z c ` c c c c 0 0 c $ c c 0 c $ * * * $ ,X$ $ $ % % . % % % . . , , , , 7 , , 0 0 0 w 0 w ` w ` >.` >.>.>.>.>.v.U.5.q.q.U.U.U.U.U.(.U.(.~.~.~.~.~.Q.J.;XJ.(..X.XJ.{.oX{.oX{.oX{.@X@X@X@X@X@X@X>X>X",
"A D D D D D D D D H H H H H H H H E H E E J J H E Y Y Y Y Y Y Y L Y Z B Z c ` c w c c c c 0 c 0 $ $ B * * 0 $ $ * - $ 0 $ 0 % % % % % % , , , 0 , w ` , , 0 ` w ` w q.w w q.>.` >.>.| | >.U.>.U.v.v.U.U.(.U.U.(.b.Q.b.~.~.~.~.~.J.oX(.(.{.J.:X.X{.oX{.oX@X@X@X@X@X>X>X>X>X",
"D D D D D D D D D D D H H H H H H H H H H E J J D Y Y Y Y Y Y Y Y L Y B Z *.c c c c w c c c 0 c c 0 $ $ * B $ 0 - $ $ $ $ $ $ % 0 , 0 , 0 , , 0 0 , , 7 7 ` W W w ` w ` w >.>.>.>.| | >.q.q.v.U.U.U.U.U.b.U.U.b.~.~.Q.~.~.~.~.~.(.J.J.J.J.{.J.:XoX{.oX{.@X@X@X@X@XOX>XOX>X",
"A D A D A D D D D D D D H H H H H H H H H E H H H H H { J J Y Y L Y L Z B B c c c ` c w c c $ c Z * c $ c $ $ $ Z $ Z $ c 0 , 0 % $ c 0 , 0 , , , ` , w W W W 7 w >.` :.>.` >.>.>.>.| | v.U.v.v.v.U.U.U.U.(.b.U.~.~.b.~.~.~.~.;X(.(.J.(.J..X:X.XoX{.oXOX@X@X@XOX>XOX>X>X>X",
"D A D A A D D D D D D D H D H H H H H H H H H H H H E H J J Y Y Y L Y L B Z Z c ` c c c 0 c c 0 $ c * Z $ 0 c 0 * $ - $ 0 $ c % 0 , 0 , c , c 7 w , W 7 W 7 ` ` ` w :.` ` >.>.>.| v.>.v.v.v.| U.U.U.U.U.U.U.b.(.Q.b.Q.~.~.~.~.~.U.(.(.J..X.X.X:X{.oX{.oX@X@XOXOXOXOX>X>X>X",
"<XD D D D A D D D D D D D D D H H H H H H H H H H E H E J J J Y Y L L Y B Z B B c c c c 0 c c c c 0 c 0 c 0 0 c Z c 0 $ c 0 0 0 , c , c , w w , W W ` ` w ` ` w w ` w >.` >.` | >.v.v.q.v.v.g.g.v.U.U.U.U.U.U.U.Q.~.Q.b.~.~.~.~.(.(.J.(.(..X.X.XoX{.oXOXOXOXOXOXOX>X>X>X<X",
"<XD D A A D A D D D D D D D D D H H H H H H H H H H E H J J J J J Z Y L Y B B Z Z c c c c c c 0 $ c c c 0 c c 0 B $ $ Z $ c c 0 c , 0 c 0 ` c ` c w c w ` w >.` >.` >.` >.| >.| | | | >.v.g.U.g.v.U.U.U.U.b.(.U.b.~.~.~.~.~.~.~.(.J.(.J.(..X.X.X{.oX{.OXOXOXOXOXOXOX>X@X<X",
"<XD A D D A D A D D D D D D D D D D D D D D H H H H H H E H H H J c J Z Y L Z B Z Z c c c c c c ` c 0 c 0 c c 0 c 0 0 0 c 0 0 0 w ` w c w w ` 0 ` c w ` w ` ` >.` >.` ` >.| { | | | v.g.U.z.d.g.U.U.U.U.U.U.U.U.Q.Q.U.Q.Q.~.~.~.(.(..XQ.:X.X(.{.F.{.{.{.OXOXOXOXOX>XOX>X<X",
"<X<XA A A D A D D D A D D D D D D D D D H H H H H H H H H E H H J J J S S L L Z B Z B Z c c c c c c c c c c c c c c c c c c c c 0 c c c c ` c ` w ` ` ` ` ` ` >.>.` { | | | | | v.| | | z.z.z.z.U.v.v.U.U.U.U.Q.U.U.U.Q.Q.Q.~.~.(.(.Q..XQ.Q..X:X{.{.{.{.{.OXOXOXOX>X>X<X<X",
"<X<X<XD A A D A D A D A D D D D D D D D D H H H H H H H H H H H J J J J J c c Y B B Z B Z c c c c c c c 0 c ` 0 c 0 c ` ` 0 c ` c w ` w 0 ` ` w ` ` ` ` w ` ` ` W | | { q.E | | v.| z.z.E U.z.z.| P.P.P.P.P.U.U.U.Q.Q.~.Q.U.Q.Q.U.(.Q.Q.:XQ.:XQ.:X{.{.{.OXOXOXOXOX>X<X<X<X",
"<X<X<XA A A A D A D A D A A D D D D D D D D D H H H H H H H H H S J J J J J S J c B B B B Z Z ` c c c c c c c c c c 0 c ` c ` c ` c c ` ` ` ` c c ` ` ` ` >.>.` >.{ { | >.| { v.g.| E z.P.| z.z.v.P.P.| P.P.P.P.U.U.Q.U.Q.Q.Q.Q.U.(.:XQ.Q.:X:XQ.Q.:X{.{.OXOXOXOXOX@X<X<X<X",
"<X<X<X<XD A A A A D D A D A D A A D D D D D D D H H H H H H H H J J J J J J J J J c S Z B Z B B B Z c c c c c c ` c c c c c c ` c ` ` c c ` ` ` ` ` ` ` ` ` E E { v.{ v.>.v.{ { g.g.g.U.z.U.z.z.P.| P.z.z.P.P.P.U.U.Q.P.Q.Q.P.Q.(.Q.Q.:X:XQ.:X:X:X:X:X{.OXOXOXOX@X<X<X<X<X",
"<X<X<X<X<XD A A A A A D A D A D D A D D D D D D H H H H D D H H J S J S S J J J S J S J B B B Z B Z B Z Z Z Z c c ` ` ` c c ` c ` c ` c ` ` ` ` Z Z *.Z q.` q.{ { E { g.| { { v.g.g.g.g.z.| E z.| P.U.| z.P.P.P.U.Q.P.Q.P.Q.Q.Q.U.Q.Q.Q.Q.Q.Q.:XQ.:X:X:XOX{.OXOX<X<X<X<X<X",
"<X<X<X<X<X<X<XD A A A A A D D A A D A D D D D D D D D D D D D D J J J S S J J J J J J S S c B B L B B B Z B Z B B B Z Z Z Z B Z Z Z Z Z Z Z ` c *.*.*.*.` ` v.{ E v.E | E d.{ g.E | g.g.z.z.z.z.U.| U.P.z.z.P.P.U.Q.P.P.Q.Q.P.Q.Q.Q.Q.:XQ.:X:X:X:X:X:X:X{.@X<X<X<X<X<X<X<X",
"<X<X<X<X<X<X<X<XA A A A A A A D D A D D D D D D D D D D D D D D S S J J J J S S J J J J J J S S L B B B Z B B B Z Z B Z B Z Z Z Z Z Z Z Z Z *.` Y Y *.E *.E E E { { d.g.| g.g.g.z.z.U.| E z.z.z.| U.| U.z.z.P.P.P.P.P.Q.P.Q.Q.Q.Q.Q.Q.Q.:XQ.Q.Q.Q.:X:X:X:X<X<X<X<X<X<X<X<X",
"<X<X<X<X<X<X<X<X<X<X<XD D A A D A D A D A D A D A D D D D D D D S J S J S J J S J J S J J J J J S J Z L L L L Y L Y L Y L Y Y Y Z Y Y Y Y Y Y Y Y E *.E *.E *.v.{ d.E | g.g.g.g.g.g.g.g.g.g.U.z.U.| U.| P.P.P.P.P.P.P.P.Q.P.Q.U.Q.Q.Q.:XQ.Q.:X:XQ.:X<X<X<X<X<X<X<X<X<X<X<X"
};
